  0
SECTION
  2
BLOCKS
  0
ENDSEC
  0
SECTION
  2
ENTITIES
  0
LINE
  8
0
 10
38
 20
4030
 11
76
 21
4030
  0
LINE
  8
0
 10
76
 20
4030
 11
76
 21
4026
  0
LINE
  8
0
 10
76
 20
4026
 11
114
 21
4026
  0
LINE
  8
0
 10
114
 20
4026
 11
114
 21
4030
  0
LINE
  8
0
 10
114
 20
4030
 11
152
 21
4030
  0
LINE
  8
0
 10
152
 20
4030
 11
152
 21
4026
  0
LINE
  8
0
 10
152
 20
4026
 11
190
 21
4026
  0
LINE
  8
0
 10
190
 20
4026
 11
190
 21
4030
  0
LINE
  8
0
 10
190
 20
4030
 11
194
 21
4030
  0
LINE
  8
0
 10
194
 20
4030
 11
194
 21
4110
  0
LINE
  8
0
 10
194
 20
4110
 11
190
 21
4110
  0
LINE
  8
0
 10
190
 20
4110
 11
190
 21
4190
  0
LINE
  8
0
 10
190
 20
4190
 11
194
 21
4190
  0
LINE
  8
0
 10
194
 20
4190
 11
194
 21
4270
  0
LINE
  8
0
 10
194
 20
4270
 11
190
 21
4270
  0
LINE
  8
0
 10
190
 20
4270
 11
190
 21
4350
  0
LINE
  8
0
 10
190
 20
4350
 11
194
 21
4350
  0
LINE
  8
0
 10
194
 20
4350
 11
194
 21
4430
  0
LINE
  8
0
 10
194
 20
4430
 11
190
 21
4430
  0
LINE
  8
0
 10
190
 20
4430
 11
190
 21
4434
  0
LINE
  8
0
 10
190
 20
4434
 11
152
 21
4434
  0
LINE
  8
0
 10
152
 20
4434
 11
152
 21
4430
  0
LINE
  8
0
 10
152
 20
4430
 11
114
 21
4430
  0
LINE
  8
0
 10
114
 20
4430
 11
114
 21
4434
  0
LINE
  8
0
 10
114
 20
4434
 11
76
 21
4434
  0
LINE
  8
0
 10
76
 20
4434
 11
76
 21
4430
  0
LINE
  8
0
 10
76
 20
4430
 11
38
 21
4430
  0
LINE
  8
0
 10
38
 20
4430
 11
38
 21
4434
  0
LINE
  8
0
 10
38
 20
4434
 11
0
 21
4434
  0
LINE
  8
0
 10
0
 20
4434
 11
0
 21
4430
  0
LINE
  8
0
 10
0
 20
4430
 11
-4
 21
4430
  0
LINE
  8
0
 10
-4
 20
4430
 11
-4
 21
4350
  0
LINE
  8
0
 10
-4
 20
4350
 11
0
 21
4350
  0
LINE
  8
0
 10
0
 20
4350
 11
0
 21
4270
  0
LINE
  8
0
 10
0
 20
4270
 11
-4
 21
4270
  0
LINE
  8
0
 10
-4
 20
4270
 11
-4
 21
4190
  0
LINE
  8
0
 10
-4
 20
4190
 11
0
 21
4190
  0
LINE
  8
0
 10
0
 20
4190
 11
0
 21
4110
  0
LINE
  8
0
 10
0
 20
4110
 11
-4
 21
4110
  0
LINE
  8
0
 10
-4
 20
4110
 11
-4
 21
4030
  0
LINE
  8
0
 10
-4
 20
4030
 11
0
 21
4030
  0
LINE
  8
0
 10
0
 20
4030
 11
0
 21
4026
  0
LINE
  8
0
 10
0
 20
4026
 11
38
 21
4026
  0
LINE
  8
0
 10
38
 20
4026
 11
38
 21
4030
  0
LINE
  8
0
 10
154.817
 20
4377.26
 11
154.636
 21
4377.29
  0
LINE
  8
0
 10
154.636
 20
4377.29
 11
154.459
 21
4377.34
  0
LINE
  8
0
 10
154.459
 20
4377.34
 11
154.288
 21
4377.4
  0
LINE
  8
0
 10
154.288
 20
4377.4
 11
154.125
 21
4377.48
  0
LINE
  8
0
 10
154.125
 20
4377.48
 11
153.971
 21
4377.58
  0
LINE
  8
0
 10
153.971
 20
4377.58
 11
153.829
 21
4377.7
  0
LINE
  8
0
 10
153.829
 20
4377.7
 11
153.699
 21
4377.83
  0
LINE
  8
0
 10
153.699
 20
4377.83
 11
153.584
 21
4377.97
  0
LINE
  8
0
 10
153.584
 20
4377.97
 11
153.484
 21
4378.12
  0
LINE
  8
0
 10
153.484
 20
4378.12
 11
153.401
 21
4378.29
  0
LINE
  8
0
 10
153.401
 20
4378.29
 11
153.336
 21
4378.46
  0
LINE
  8
0
 10
153.336
 20
4378.46
 11
153.288
 21
4378.64
  0
LINE
  8
0
 10
153.288
 20
4378.64
 11
153.26
 21
4378.82
  0
LINE
  8
0
 10
153.26
 20
4378.82
 11
153.25
 21
4379
  0
LINE
  8
0
 10
153.25
 20
4379
 11
153.26
 21
4379.18
  0
LINE
  8
0
 10
153.26
 20
4379.18
 11
153.288
 21
4379.36
  0
LINE
  8
0
 10
153.288
 20
4379.36
 11
153.336
 21
4379.54
  0
LINE
  8
0
 10
153.336
 20
4379.54
 11
153.401
 21
4379.71
  0
LINE
  8
0
 10
153.401
 20
4379.71
 11
153.484
 21
4379.88
  0
LINE
  8
0
 10
153.484
 20
4379.88
 11
153.584
 21
4380.03
  0
LINE
  8
0
 10
153.584
 20
4380.03
 11
153.699
 21
4380.17
  0
LINE
  8
0
 10
153.699
 20
4380.17
 11
153.829
 21
4380.3
  0
LINE
  8
0
 10
153.829
 20
4380.3
 11
153.971
 21
4380.42
  0
LINE
  8
0
 10
153.971
 20
4380.42
 11
154.125
 21
4380.52
  0
LINE
  8
0
 10
154.125
 20
4380.52
 11
154.288
 21
4380.6
  0
LINE
  8
0
 10
154.288
 20
4380.6
 11
154.459
 21
4380.66
  0
LINE
  8
0
 10
154.459
 20
4380.66
 11
154.636
 21
4380.71
  0
LINE
  8
0
 10
154.636
 20
4380.71
 11
154.817
 21
4380.74
  0
LINE
  8
0
 10
154.817
 20
4380.74
 11
155
 21
4380.75
  0
LINE
  8
0
 10
155
 20
4380.75
 11
155.183
 21
4380.74
  0
LINE
  8
0
 10
155.183
 20
4380.74
 11
155.364
 21
4380.71
  0
LINE
  8
0
 10
155.364
 20
4380.71
 11
155.541
 21
4380.66
  0
LINE
  8
0
 10
155.541
 20
4380.66
 11
155.712
 21
4380.6
  0
LINE
  8
0
 10
155.712
 20
4380.6
 11
155.875
 21
4380.52
  0
LINE
  8
0
 10
155.875
 20
4380.52
 11
156.029
 21
4380.42
  0
LINE
  8
0
 10
156.029
 20
4380.42
 11
156.171
 21
4380.3
  0
LINE
  8
0
 10
156.171
 20
4380.3
 11
156.301
 21
4380.17
  0
LINE
  8
0
 10
156.301
 20
4380.17
 11
156.416
 21
4380.03
  0
LINE
  8
0
 10
156.416
 20
4380.03
 11
156.516
 21
4379.88
  0
LINE
  8
0
 10
156.516
 20
4379.88
 11
156.599
 21
4379.71
  0
LINE
  8
0
 10
156.599
 20
4379.71
 11
156.664
 21
4379.54
  0
LINE
  8
0
 10
156.664
 20
4379.54
 11
156.712
 21
4379.36
  0
LINE
  8
0
 10
156.712
 20
4379.36
 11
156.74
 21
4379.18
  0
LINE
  8
0
 10
156.74
 20
4379.18
 11
156.75
 21
4379
  0
LINE
  8
0
 10
156.75
 20
4379
 11
156.74
 21
4378.82
  0
LINE
  8
0
 10
156.74
 20
4378.82
 11
156.712
 21
4378.64
  0
LINE
  8
0
 10
156.712
 20
4378.64
 11
156.664
 21
4378.46
  0
LINE
  8
0
 10
156.664
 20
4378.46
 11
156.599
 21
4378.29
  0
LINE
  8
0
 10
156.599
 20
4378.29
 11
156.516
 21
4378.12
  0
LINE
  8
0
 10
156.516
 20
4378.12
 11
156.416
 21
4377.97
  0
LINE
  8
0
 10
156.416
 20
4377.97
 11
156.301
 21
4377.83
  0
LINE
  8
0
 10
156.301
 20
4377.83
 11
156.171
 21
4377.7
  0
LINE
  8
0
 10
156.171
 20
4377.7
 11
156.029
 21
4377.58
  0
LINE
  8
0
 10
156.029
 20
4377.58
 11
155.875
 21
4377.48
  0
LINE
  8
0
 10
155.875
 20
4377.48
 11
155.712
 21
4377.4
  0
LINE
  8
0
 10
155.712
 20
4377.4
 11
155.541
 21
4377.34
  0
LINE
  8
0
 10
155.541
 20
4377.34
 11
155.364
 21
4377.29
  0
LINE
  8
0
 10
155.364
 20
4377.29
 11
155.183
 21
4377.26
  0
LINE
  8
0
 10
155.183
 20
4377.26
 11
155
 21
4377.25
  0
LINE
  8
0
 10
155
 20
4377.25
 11
154.817
 21
4377.26
  0
LINE
  8
0
 10
34.8171
 20
4377.26
 11
34.6362
 21
4377.29
  0
LINE
  8
0
 10
34.6362
 20
4377.29
 11
34.4592
 21
4377.34
  0
LINE
  8
0
 10
34.4592
 20
4377.34
 11
34.2882
 21
4377.4
  0
LINE
  8
0
 10
34.2882
 20
4377.4
 11
34.125
 21
4377.48
  0
LINE
  8
0
 10
34.125
 20
4377.48
 11
33.9714
 21
4377.58
  0
LINE
  8
0
 10
33.9714
 20
4377.58
 11
33.829
 21
4377.7
  0
LINE
  8
0
 10
33.829
 20
4377.7
 11
33.6995
 21
4377.83
  0
LINE
  8
0
 10
33.6995
 20
4377.83
 11
33.5842
 21
4377.97
  0
LINE
  8
0
 10
33.5842
 20
4377.97
 11
33.4845
 21
4378.12
  0
LINE
  8
0
 10
33.4845
 20
4378.12
 11
33.4013
 21
4378.29
  0
LINE
  8
0
 10
33.4013
 20
4378.29
 11
33.3356
 21
4378.46
  0
LINE
  8
0
 10
33.3356
 20
4378.46
 11
33.2882
 21
4378.64
  0
LINE
  8
0
 10
33.2882
 20
4378.64
 11
33.2596
 21
4378.82
  0
LINE
  8
0
 10
33.2596
 20
4378.82
 11
33.25
 21
4379
  0
LINE
  8
0
 10
33.25
 20
4379
 11
33.2596
 21
4379.18
  0
LINE
  8
0
 10
33.2596
 20
4379.18
 11
33.2882
 21
4379.36
  0
LINE
  8
0
 10
33.2882
 20
4379.36
 11
33.3356
 21
4379.54
  0
LINE
  8
0
 10
33.3356
 20
4379.54
 11
33.4013
 21
4379.71
  0
LINE
  8
0
 10
33.4013
 20
4379.71
 11
33.4845
 21
4379.88
  0
LINE
  8
0
 10
33.4845
 20
4379.88
 11
33.5842
 21
4380.03
  0
LINE
  8
0
 10
33.5842
 20
4380.03
 11
33.6995
 21
4380.17
  0
LINE
  8
0
 10
33.6995
 20
4380.17
 11
33.829
 21
4380.3
  0
LINE
  8
0
 10
33.829
 20
4380.3
 11
33.9714
 21
4380.42
  0
LINE
  8
0
 10
33.9714
 20
4380.42
 11
34.125
 21
4380.52
  0
LINE
  8
0
 10
34.125
 20
4380.52
 11
34.2882
 21
4380.6
  0
LINE
  8
0
 10
34.2882
 20
4380.6
 11
34.4592
 21
4380.66
  0
LINE
  8
0
 10
34.4592
 20
4380.66
 11
34.6362
 21
4380.71
  0
LINE
  8
0
 10
34.6362
 20
4380.71
 11
34.8171
 21
4380.74
  0
LINE
  8
0
 10
34.8171
 20
4380.74
 11
35
 21
4380.75
  0
LINE
  8
0
 10
35
 20
4380.75
 11
35.1829
 21
4380.74
  0
LINE
  8
0
 10
35.1829
 20
4380.74
 11
35.3638
 21
4380.71
  0
LINE
  8
0
 10
35.3638
 20
4380.71
 11
35.5408
 21
4380.66
  0
LINE
  8
0
 10
35.5408
 20
4380.66
 11
35.7118
 21
4380.6
  0
LINE
  8
0
 10
35.7118
 20
4380.6
 11
35.875
 21
4380.52
  0
LINE
  8
0
 10
35.875
 20
4380.52
 11
36.0286
 21
4380.42
  0
LINE
  8
0
 10
36.0286
 20
4380.42
 11
36.171
 21
4380.3
  0
LINE
  8
0
 10
36.171
 20
4380.3
 11
36.3005
 21
4380.17
  0
LINE
  8
0
 10
36.3005
 20
4380.17
 11
36.4158
 21
4380.03
  0
LINE
  8
0
 10
36.4158
 20
4380.03
 11
36.5155
 21
4379.88
  0
LINE
  8
0
 10
36.5155
 20
4379.88
 11
36.5987
 21
4379.71
  0
LINE
  8
0
 10
36.5987
 20
4379.71
 11
36.6643
 21
4379.54
  0
LINE
  8
0
 10
36.6643
 20
4379.54
 11
36.7117
 21
4379.36
  0
LINE
  8
0
 10
36.7117
 20
4379.36
 11
36.7404
 21
4379.18
  0
LINE
  8
0
 10
36.7404
 20
4379.18
 11
36.75
 21
4379
  0
LINE
  8
0
 10
36.75
 20
4379
 11
36.7404
 21
4378.82
  0
LINE
  8
0
 10
36.7404
 20
4378.82
 11
36.7117
 21
4378.64
  0
LINE
  8
0
 10
36.7117
 20
4378.64
 11
36.6643
 21
4378.46
  0
LINE
  8
0
 10
36.6643
 20
4378.46
 11
36.5987
 21
4378.29
  0
LINE
  8
0
 10
36.5987
 20
4378.29
 11
36.5155
 21
4378.12
  0
LINE
  8
0
 10
36.5155
 20
4378.12
 11
36.4158
 21
4377.97
  0
LINE
  8
0
 10
36.4158
 20
4377.97
 11
36.3005
 21
4377.83
  0
LINE
  8
0
 10
36.3005
 20
4377.83
 11
36.171
 21
4377.7
  0
LINE
  8
0
 10
36.171
 20
4377.7
 11
36.0286
 21
4377.58
  0
LINE
  8
0
 10
36.0286
 20
4377.58
 11
35.875
 21
4377.48
  0
LINE
  8
0
 10
35.875
 20
4377.48
 11
35.7118
 21
4377.4
  0
LINE
  8
0
 10
35.7118
 20
4377.4
 11
35.5408
 21
4377.34
  0
LINE
  8
0
 10
35.5408
 20
4377.34
 11
35.3638
 21
4377.29
  0
LINE
  8
0
 10
35.3638
 20
4377.29
 11
35.1829
 21
4377.26
  0
LINE
  8
0
 10
35.1829
 20
4377.26
 11
35
 21
4377.25
  0
LINE
  8
0
 10
35
 20
4377.25
 11
34.8171
 21
4377.26
  0
LINE
  8
0
 10
88.7283
 20
4259.33
 11
82.5253
 21
4260.31
  0
LINE
  8
0
 10
82.5253
 20
4260.31
 11
76.459
 21
4261.94
  0
LINE
  8
0
 10
76.459
 20
4261.94
 11
70.5958
 21
4264.19
  0
LINE
  8
0
 10
70.5958
 20
4264.19
 11
65
 21
4267.04
  0
LINE
  8
0
 10
65
 20
4267.04
 11
59.7329
 21
4270.46
  0
LINE
  8
0
 10
59.7329
 20
4270.46
 11
54.8522
 21
4274.41
  0
LINE
  8
0
 10
54.8522
 20
4274.41
 11
50.4113
 21
4278.85
  0
LINE
  8
0
 10
50.4113
 20
4278.85
 11
46.459
 21
4283.73
  0
LINE
  8
0
 10
46.459
 20
4283.73
 11
43.0385
 21
4289
  0
LINE
  8
0
 10
43.0385
 20
4289
 11
40.1873
 21
4294.6
  0
LINE
  8
0
 10
40.1873
 20
4294.6
 11
37.9366
 21
4300.46
  0
LINE
  8
0
 10
37.9366
 20
4300.46
 11
36.3111
 21
4306.53
  0
LINE
  8
0
 10
36.3111
 20
4306.53
 11
35.3287
 21
4312.73
  0
LINE
  8
0
 10
35.3287
 20
4312.73
 11
35
 21
4319
  0
LINE
  8
0
 10
35
 20
4319
 11
35.3287
 21
4325.27
  0
LINE
  8
0
 10
35.3287
 20
4325.27
 11
36.3111
 21
4331.47
  0
LINE
  8
0
 10
36.3111
 20
4331.47
 11
37.9366
 21
4337.54
  0
LINE
  8
0
 10
37.9366
 20
4337.54
 11
40.1873
 21
4343.4
  0
LINE
  8
0
 10
40.1873
 20
4343.4
 11
43.0385
 21
4349
  0
LINE
  8
0
 10
43.0385
 20
4349
 11
46.459
 21
4354.27
  0
LINE
  8
0
 10
46.459
 20
4354.27
 11
50.4113
 21
4359.15
  0
LINE
  8
0
 10
50.4113
 20
4359.15
 11
54.8522
 21
4363.59
  0
LINE
  8
0
 10
54.8522
 20
4363.59
 11
59.7329
 21
4367.54
  0
LINE
  8
0
 10
59.7329
 20
4367.54
 11
65
 21
4370.96
  0
LINE
  8
0
 10
65
 20
4370.96
 11
70.5958
 21
4373.81
  0
LINE
  8
0
 10
70.5958
 20
4373.81
 11
76.459
 21
4376.06
  0
LINE
  8
0
 10
76.459
 20
4376.06
 11
82.5253
 21
4377.69
  0
LINE
  8
0
 10
82.5253
 20
4377.69
 11
88.7283
 21
4378.67
  0
LINE
  8
0
 10
88.7283
 20
4378.67
 11
95
 21
4379
  0
LINE
  8
0
 10
95
 20
4379
 11
101.272
 21
4378.67
  0
LINE
  8
0
 10
101.272
 20
4378.67
 11
107.475
 21
4377.69
  0
LINE
  8
0
 10
107.475
 20
4377.69
 11
113.541
 21
4376.06
  0
LINE
  8
0
 10
113.541
 20
4376.06
 11
119.404
 21
4373.81
  0
LINE
  8
0
 10
119.404
 20
4373.81
 11
125
 21
4370.96
  0
LINE
  8
0
 10
125
 20
4370.96
 11
130.267
 21
4367.54
  0
LINE
  8
0
 10
130.267
 20
4367.54
 11
135.148
 21
4363.59
  0
LINE
  8
0
 10
135.148
 20
4363.59
 11
139.589
 21
4359.15
  0
LINE
  8
0
 10
139.589
 20
4359.15
 11
143.541
 21
4354.27
  0
LINE
  8
0
 10
143.541
 20
4354.27
 11
146.962
 21
4349
  0
LINE
  8
0
 10
146.962
 20
4349
 11
149.813
 21
4343.4
  0
LINE
  8
0
 10
149.813
 20
4343.4
 11
152.063
 21
4337.54
  0
LINE
  8
0
 10
152.063
 20
4337.54
 11
153.689
 21
4331.47
  0
LINE
  8
0
 10
153.689
 20
4331.47
 11
154.671
 21
4325.27
  0
LINE
  8
0
 10
154.671
 20
4325.27
 11
155
 21
4319
  0
LINE
  8
0
 10
155
 20
4319
 11
154.671
 21
4312.73
  0
LINE
  8
0
 10
154.671
 20
4312.73
 11
153.689
 21
4306.53
  0
LINE
  8
0
 10
153.689
 20
4306.53
 11
152.063
 21
4300.46
  0
LINE
  8
0
 10
152.063
 20
4300.46
 11
149.813
 21
4294.6
  0
LINE
  8
0
 10
149.813
 20
4294.6
 11
146.962
 21
4289
  0
LINE
  8
0
 10
146.962
 20
4289
 11
143.541
 21
4283.73
  0
LINE
  8
0
 10
143.541
 20
4283.73
 11
139.589
 21
4278.85
  0
LINE
  8
0
 10
139.589
 20
4278.85
 11
135.148
 21
4274.41
  0
LINE
  8
0
 10
135.148
 20
4274.41
 11
130.267
 21
4270.46
  0
LINE
  8
0
 10
130.267
 20
4270.46
 11
125
 21
4267.04
  0
LINE
  8
0
 10
125
 20
4267.04
 11
119.404
 21
4264.19
  0
LINE
  8
0
 10
119.404
 20
4264.19
 11
113.541
 21
4261.94
  0
LINE
  8
0
 10
113.541
 20
4261.94
 11
107.475
 21
4260.31
  0
LINE
  8
0
 10
107.475
 20
4260.31
 11
101.272
 21
4259.33
  0
LINE
  8
0
 10
101.272
 20
4259.33
 11
95
 21
4259
  0
LINE
  8
0
 10
95
 20
4259
 11
88.7283
 21
4259.33
  0
LINE
  8
0
 10
154.817
 20
4257.26
 11
154.636
 21
4257.29
  0
LINE
  8
0
 10
154.636
 20
4257.29
 11
154.459
 21
4257.34
  0
LINE
  8
0
 10
154.459
 20
4257.34
 11
154.288
 21
4257.4
  0
LINE
  8
0
 10
154.288
 20
4257.4
 11
154.125
 21
4257.48
  0
LINE
  8
0
 10
154.125
 20
4257.48
 11
153.971
 21
4257.58
  0
LINE
  8
0
 10
153.971
 20
4257.58
 11
153.829
 21
4257.7
  0
LINE
  8
0
 10
153.829
 20
4257.7
 11
153.699
 21
4257.83
  0
LINE
  8
0
 10
153.699
 20
4257.83
 11
153.584
 21
4257.97
  0
LINE
  8
0
 10
153.584
 20
4257.97
 11
153.484
 21
4258.12
  0
LINE
  8
0
 10
153.484
 20
4258.12
 11
153.401
 21
4258.29
  0
LINE
  8
0
 10
153.401
 20
4258.29
 11
153.336
 21
4258.46
  0
LINE
  8
0
 10
153.336
 20
4258.46
 11
153.288
 21
4258.64
  0
LINE
  8
0
 10
153.288
 20
4258.64
 11
153.26
 21
4258.82
  0
LINE
  8
0
 10
153.26
 20
4258.82
 11
153.25
 21
4259
  0
LINE
  8
0
 10
153.25
 20
4259
 11
153.26
 21
4259.18
  0
LINE
  8
0
 10
153.26
 20
4259.18
 11
153.288
 21
4259.36
  0
LINE
  8
0
 10
153.288
 20
4259.36
 11
153.336
 21
4259.54
  0
LINE
  8
0
 10
153.336
 20
4259.54
 11
153.401
 21
4259.71
  0
LINE
  8
0
 10
153.401
 20
4259.71
 11
153.484
 21
4259.88
  0
LINE
  8
0
 10
153.484
 20
4259.88
 11
153.584
 21
4260.03
  0
LINE
  8
0
 10
153.584
 20
4260.03
 11
153.699
 21
4260.17
  0
LINE
  8
0
 10
153.699
 20
4260.17
 11
153.829
 21
4260.3
  0
LINE
  8
0
 10
153.829
 20
4260.3
 11
153.971
 21
4260.42
  0
LINE
  8
0
 10
153.971
 20
4260.42
 11
154.125
 21
4260.52
  0
LINE
  8
0
 10
154.125
 20
4260.52
 11
154.288
 21
4260.6
  0
LINE
  8
0
 10
154.288
 20
4260.6
 11
154.459
 21
4260.66
  0
LINE
  8
0
 10
154.459
 20
4260.66
 11
154.636
 21
4260.71
  0
LINE
  8
0
 10
154.636
 20
4260.71
 11
154.817
 21
4260.74
  0
LINE
  8
0
 10
154.817
 20
4260.74
 11
155
 21
4260.75
  0
LINE
  8
0
 10
155
 20
4260.75
 11
155.183
 21
4260.74
  0
LINE
  8
0
 10
155.183
 20
4260.74
 11
155.364
 21
4260.71
  0
LINE
  8
0
 10
155.364
 20
4260.71
 11
155.541
 21
4260.66
  0
LINE
  8
0
 10
155.541
 20
4260.66
 11
155.712
 21
4260.6
  0
LINE
  8
0
 10
155.712
 20
4260.6
 11
155.875
 21
4260.52
  0
LINE
  8
0
 10
155.875
 20
4260.52
 11
156.029
 21
4260.42
  0
LINE
  8
0
 10
156.029
 20
4260.42
 11
156.171
 21
4260.3
  0
LINE
  8
0
 10
156.171
 20
4260.3
 11
156.301
 21
4260.17
  0
LINE
  8
0
 10
156.301
 20
4260.17
 11
156.416
 21
4260.03
  0
LINE
  8
0
 10
156.416
 20
4260.03
 11
156.516
 21
4259.88
  0
LINE
  8
0
 10
156.516
 20
4259.88
 11
156.599
 21
4259.71
  0
LINE
  8
0
 10
156.599
 20
4259.71
 11
156.664
 21
4259.54
  0
LINE
  8
0
 10
156.664
 20
4259.54
 11
156.712
 21
4259.36
  0
LINE
  8
0
 10
156.712
 20
4259.36
 11
156.74
 21
4259.18
  0
LINE
  8
0
 10
156.74
 20
4259.18
 11
156.75
 21
4259
  0
LINE
  8
0
 10
156.75
 20
4259
 11
156.74
 21
4258.82
  0
LINE
  8
0
 10
156.74
 20
4258.82
 11
156.712
 21
4258.64
  0
LINE
  8
0
 10
156.712
 20
4258.64
 11
156.664
 21
4258.46
  0
LINE
  8
0
 10
156.664
 20
4258.46
 11
156.599
 21
4258.29
  0
LINE
  8
0
 10
156.599
 20
4258.29
 11
156.516
 21
4258.12
  0
LINE
  8
0
 10
156.516
 20
4258.12
 11
156.416
 21
4257.97
  0
LINE
  8
0
 10
156.416
 20
4257.97
 11
156.301
 21
4257.83
  0
LINE
  8
0
 10
156.301
 20
4257.83
 11
156.171
 21
4257.7
  0
LINE
  8
0
 10
156.171
 20
4257.7
 11
156.029
 21
4257.58
  0
LINE
  8
0
 10
156.029
 20
4257.58
 11
155.875
 21
4257.48
  0
LINE
  8
0
 10
155.875
 20
4257.48
 11
155.712
 21
4257.4
  0
LINE
  8
0
 10
155.712
 20
4257.4
 11
155.541
 21
4257.34
  0
LINE
  8
0
 10
155.541
 20
4257.34
 11
155.364
 21
4257.29
  0
LINE
  8
0
 10
155.364
 20
4257.29
 11
155.183
 21
4257.26
  0
LINE
  8
0
 10
155.183
 20
4257.26
 11
155
 21
4257.25
  0
LINE
  8
0
 10
155
 20
4257.25
 11
154.817
 21
4257.26
  0
LINE
  8
0
 10
34.8171
 20
4257.26
 11
34.6362
 21
4257.29
  0
LINE
  8
0
 10
34.6362
 20
4257.29
 11
34.4592
 21
4257.34
  0
LINE
  8
0
 10
34.4592
 20
4257.34
 11
34.2882
 21
4257.4
  0
LINE
  8
0
 10
34.2882
 20
4257.4
 11
34.125
 21
4257.48
  0
LINE
  8
0
 10
34.125
 20
4257.48
 11
33.9714
 21
4257.58
  0
LINE
  8
0
 10
33.9714
 20
4257.58
 11
33.829
 21
4257.7
  0
LINE
  8
0
 10
33.829
 20
4257.7
 11
33.6995
 21
4257.83
  0
LINE
  8
0
 10
33.6995
 20
4257.83
 11
33.5842
 21
4257.97
  0
LINE
  8
0
 10
33.5842
 20
4257.97
 11
33.4845
 21
4258.12
  0
LINE
  8
0
 10
33.4845
 20
4258.12
 11
33.4013
 21
4258.29
  0
LINE
  8
0
 10
33.4013
 20
4258.29
 11
33.3356
 21
4258.46
  0
LINE
  8
0
 10
33.3356
 20
4258.46
 11
33.2882
 21
4258.64
  0
LINE
  8
0
 10
33.2882
 20
4258.64
 11
33.2596
 21
4258.82
  0
LINE
  8
0
 10
33.2596
 20
4258.82
 11
33.25
 21
4259
  0
LINE
  8
0
 10
33.25
 20
4259
 11
33.2596
 21
4259.18
  0
LINE
  8
0
 10
33.2596
 20
4259.18
 11
33.2882
 21
4259.36
  0
LINE
  8
0
 10
33.2882
 20
4259.36
 11
33.3356
 21
4259.54
  0
LINE
  8
0
 10
33.3356
 20
4259.54
 11
33.4013
 21
4259.71
  0
LINE
  8
0
 10
33.4013
 20
4259.71
 11
33.4845
 21
4259.88
  0
LINE
  8
0
 10
33.4845
 20
4259.88
 11
33.5842
 21
4260.03
  0
LINE
  8
0
 10
33.5842
 20
4260.03
 11
33.6995
 21
4260.17
  0
LINE
  8
0
 10
33.6995
 20
4260.17
 11
33.829
 21
4260.3
  0
LINE
  8
0
 10
33.829
 20
4260.3
 11
33.9714
 21
4260.42
  0
LINE
  8
0
 10
33.9714
 20
4260.42
 11
34.125
 21
4260.52
  0
LINE
  8
0
 10
34.125
 20
4260.52
 11
34.2882
 21
4260.6
  0
LINE
  8
0
 10
34.2882
 20
4260.6
 11
34.4592
 21
4260.66
  0
LINE
  8
0
 10
34.4592
 20
4260.66
 11
34.6362
 21
4260.71
  0
LINE
  8
0
 10
34.6362
 20
4260.71
 11
34.8171
 21
4260.74
  0
LINE
  8
0
 10
34.8171
 20
4260.74
 11
35
 21
4260.75
  0
LINE
  8
0
 10
35
 20
4260.75
 11
35.1829
 21
4260.74
  0
LINE
  8
0
 10
35.1829
 20
4260.74
 11
35.3638
 21
4260.71
  0
LINE
  8
0
 10
35.3638
 20
4260.71
 11
35.5408
 21
4260.66
  0
LINE
  8
0
 10
35.5408
 20
4260.66
 11
35.7118
 21
4260.6
  0
LINE
  8
0
 10
35.7118
 20
4260.6
 11
35.875
 21
4260.52
  0
LINE
  8
0
 10
35.875
 20
4260.52
 11
36.0286
 21
4260.42
  0
LINE
  8
0
 10
36.0286
 20
4260.42
 11
36.171
 21
4260.3
  0
LINE
  8
0
 10
36.171
 20
4260.3
 11
36.3005
 21
4260.17
  0
LINE
  8
0
 10
36.3005
 20
4260.17
 11
36.4158
 21
4260.03
  0
LINE
  8
0
 10
36.4158
 20
4260.03
 11
36.5155
 21
4259.88
  0
LINE
  8
0
 10
36.5155
 20
4259.88
 11
36.5987
 21
4259.71
  0
LINE
  8
0
 10
36.5987
 20
4259.71
 11
36.6643
 21
4259.54
  0
LINE
  8
0
 10
36.6643
 20
4259.54
 11
36.7117
 21
4259.36
  0
LINE
  8
0
 10
36.7117
 20
4259.36
 11
36.7404
 21
4259.18
  0
LINE
  8
0
 10
36.7404
 20
4259.18
 11
36.75
 21
4259
  0
LINE
  8
0
 10
36.75
 20
4259
 11
36.7404
 21
4258.82
  0
LINE
  8
0
 10
36.7404
 20
4258.82
 11
36.7117
 21
4258.64
  0
LINE
  8
0
 10
36.7117
 20
4258.64
 11
36.6643
 21
4258.46
  0
LINE
  8
0
 10
36.6643
 20
4258.46
 11
36.5987
 21
4258.29
  0
LINE
  8
0
 10
36.5987
 20
4258.29
 11
36.5155
 21
4258.12
  0
LINE
  8
0
 10
36.5155
 20
4258.12
 11
36.4158
 21
4257.97
  0
LINE
  8
0
 10
36.4158
 20
4257.97
 11
36.3005
 21
4257.83
  0
LINE
  8
0
 10
36.3005
 20
4257.83
 11
36.171
 21
4257.7
  0
LINE
  8
0
 10
36.171
 20
4257.7
 11
36.0286
 21
4257.58
  0
LINE
  8
0
 10
36.0286
 20
4257.58
 11
35.875
 21
4257.48
  0
LINE
  8
0
 10
35.875
 20
4257.48
 11
35.7118
 21
4257.4
  0
LINE
  8
0
 10
35.7118
 20
4257.4
 11
35.5408
 21
4257.34
  0
LINE
  8
0
 10
35.5408
 20
4257.34
 11
35.3638
 21
4257.29
  0
LINE
  8
0
 10
35.3638
 20
4257.29
 11
35.1829
 21
4257.26
  0
LINE
  8
0
 10
35.1829
 20
4257.26
 11
35
 21
4257.25
  0
LINE
  8
0
 10
35
 20
4257.25
 11
34.8171
 21
4257.26
  0
LINE
  8
0
 10
34.8171
 20
4207.26
 11
34.6362
 21
4207.29
  0
LINE
  8
0
 10
34.6362
 20
4207.29
 11
34.4592
 21
4207.34
  0
LINE
  8
0
 10
34.4592
 20
4207.34
 11
34.2882
 21
4207.4
  0
LINE
  8
0
 10
34.2882
 20
4207.4
 11
34.125
 21
4207.48
  0
LINE
  8
0
 10
34.125
 20
4207.48
 11
33.9714
 21
4207.58
  0
LINE
  8
0
 10
33.9714
 20
4207.58
 11
33.829
 21
4207.7
  0
LINE
  8
0
 10
33.829
 20
4207.7
 11
33.6995
 21
4207.83
  0
LINE
  8
0
 10
33.6995
 20
4207.83
 11
33.5842
 21
4207.97
  0
LINE
  8
0
 10
33.5842
 20
4207.97
 11
33.4845
 21
4208.12
  0
LINE
  8
0
 10
33.4845
 20
4208.12
 11
33.4013
 21
4208.29
  0
LINE
  8
0
 10
33.4013
 20
4208.29
 11
33.3356
 21
4208.46
  0
LINE
  8
0
 10
33.3356
 20
4208.46
 11
33.2882
 21
4208.64
  0
LINE
  8
0
 10
33.2882
 20
4208.64
 11
33.2596
 21
4208.82
  0
LINE
  8
0
 10
33.2596
 20
4208.82
 11
33.25
 21
4209
  0
LINE
  8
0
 10
33.25
 20
4209
 11
33.2596
 21
4209.18
  0
LINE
  8
0
 10
33.2596
 20
4209.18
 11
33.2882
 21
4209.36
  0
LINE
  8
0
 10
33.2882
 20
4209.36
 11
33.3356
 21
4209.54
  0
LINE
  8
0
 10
33.3356
 20
4209.54
 11
33.4013
 21
4209.71
  0
LINE
  8
0
 10
33.4013
 20
4209.71
 11
33.4845
 21
4209.88
  0
LINE
  8
0
 10
33.4845
 20
4209.88
 11
33.5842
 21
4210.03
  0
LINE
  8
0
 10
33.5842
 20
4210.03
 11
33.6995
 21
4210.17
  0
LINE
  8
0
 10
33.6995
 20
4210.17
 11
33.829
 21
4210.3
  0
LINE
  8
0
 10
33.829
 20
4210.3
 11
33.9714
 21
4210.42
  0
LINE
  8
0
 10
33.9714
 20
4210.42
 11
34.125
 21
4210.52
  0
LINE
  8
0
 10
34.125
 20
4210.52
 11
34.2882
 21
4210.6
  0
LINE
  8
0
 10
34.2882
 20
4210.6
 11
34.4592
 21
4210.66
  0
LINE
  8
0
 10
34.4592
 20
4210.66
 11
34.6362
 21
4210.71
  0
LINE
  8
0
 10
34.6362
 20
4210.71
 11
34.8171
 21
4210.74
  0
LINE
  8
0
 10
34.8171
 20
4210.74
 11
35
 21
4210.75
  0
LINE
  8
0
 10
35
 20
4210.75
 11
35.1829
 21
4210.74
  0
LINE
  8
0
 10
35.1829
 20
4210.74
 11
35.3638
 21
4210.71
  0
LINE
  8
0
 10
35.3638
 20
4210.71
 11
35.5408
 21
4210.66
  0
LINE
  8
0
 10
35.5408
 20
4210.66
 11
35.7118
 21
4210.6
  0
LINE
  8
0
 10
35.7118
 20
4210.6
 11
35.875
 21
4210.52
  0
LINE
  8
0
 10
35.875
 20
4210.52
 11
36.0286
 21
4210.42
  0
LINE
  8
0
 10
36.0286
 20
4210.42
 11
36.171
 21
4210.3
  0
LINE
  8
0
 10
36.171
 20
4210.3
 11
36.3005
 21
4210.17
  0
LINE
  8
0
 10
36.3005
 20
4210.17
 11
36.4158
 21
4210.03
  0
LINE
  8
0
 10
36.4158
 20
4210.03
 11
36.5155
 21
4209.88
  0
LINE
  8
0
 10
36.5155
 20
4209.88
 11
36.5987
 21
4209.71
  0
LINE
  8
0
 10
36.5987
 20
4209.71
 11
36.6643
 21
4209.54
  0
LINE
  8
0
 10
36.6643
 20
4209.54
 11
36.7117
 21
4209.36
  0
LINE
  8
0
 10
36.7117
 20
4209.36
 11
36.7404
 21
4209.18
  0
LINE
  8
0
 10
36.7404
 20
4209.18
 11
36.75
 21
4209
  0
LINE
  8
0
 10
36.75
 20
4209
 11
36.7404
 21
4208.82
  0
LINE
  8
0
 10
36.7404
 20
4208.82
 11
36.7117
 21
4208.64
  0
LINE
  8
0
 10
36.7117
 20
4208.64
 11
36.6643
 21
4208.46
  0
LINE
  8
0
 10
36.6643
 20
4208.46
 11
36.5987
 21
4208.29
  0
LINE
  8
0
 10
36.5987
 20
4208.29
 11
36.5155
 21
4208.12
  0
LINE
  8
0
 10
36.5155
 20
4208.12
 11
36.4158
 21
4207.97
  0
LINE
  8
0
 10
36.4158
 20
4207.97
 11
36.3005
 21
4207.83
  0
LINE
  8
0
 10
36.3005
 20
4207.83
 11
36.171
 21
4207.7
  0
LINE
  8
0
 10
36.171
 20
4207.7
 11
36.0286
 21
4207.58
  0
LINE
  8
0
 10
36.0286
 20
4207.58
 11
35.875
 21
4207.48
  0
LINE
  8
0
 10
35.875
 20
4207.48
 11
35.7118
 21
4207.4
  0
LINE
  8
0
 10
35.7118
 20
4207.4
 11
35.5408
 21
4207.34
  0
LINE
  8
0
 10
35.5408
 20
4207.34
 11
35.3638
 21
4207.29
  0
LINE
  8
0
 10
35.3638
 20
4207.29
 11
35.1829
 21
4207.26
  0
LINE
  8
0
 10
35.1829
 20
4207.26
 11
35
 21
4207.25
  0
LINE
  8
0
 10
35
 20
4207.25
 11
34.8171
 21
4207.26
  0
LINE
  8
0
 10
154.817
 20
4207.26
 11
154.636
 21
4207.29
  0
LINE
  8
0
 10
154.636
 20
4207.29
 11
154.459
 21
4207.34
  0
LINE
  8
0
 10
154.459
 20
4207.34
 11
154.288
 21
4207.4
  0
LINE
  8
0
 10
154.288
 20
4207.4
 11
154.125
 21
4207.48
  0
LINE
  8
0
 10
154.125
 20
4207.48
 11
153.971
 21
4207.58
  0
LINE
  8
0
 10
153.971
 20
4207.58
 11
153.829
 21
4207.7
  0
LINE
  8
0
 10
153.829
 20
4207.7
 11
153.699
 21
4207.83
  0
LINE
  8
0
 10
153.699
 20
4207.83
 11
153.584
 21
4207.97
  0
LINE
  8
0
 10
153.584
 20
4207.97
 11
153.484
 21
4208.12
  0
LINE
  8
0
 10
153.484
 20
4208.12
 11
153.401
 21
4208.29
  0
LINE
  8
0
 10
153.401
 20
4208.29
 11
153.336
 21
4208.46
  0
LINE
  8
0
 10
153.336
 20
4208.46
 11
153.288
 21
4208.64
  0
LINE
  8
0
 10
153.288
 20
4208.64
 11
153.26
 21
4208.82
  0
LINE
  8
0
 10
153.26
 20
4208.82
 11
153.25
 21
4209
  0
LINE
  8
0
 10
153.25
 20
4209
 11
153.26
 21
4209.18
  0
LINE
  8
0
 10
153.26
 20
4209.18
 11
153.288
 21
4209.36
  0
LINE
  8
0
 10
153.288
 20
4209.36
 11
153.336
 21
4209.54
  0
LINE
  8
0
 10
153.336
 20
4209.54
 11
153.401
 21
4209.71
  0
LINE
  8
0
 10
153.401
 20
4209.71
 11
153.484
 21
4209.88
  0
LINE
  8
0
 10
153.484
 20
4209.88
 11
153.584
 21
4210.03
  0
LINE
  8
0
 10
153.584
 20
4210.03
 11
153.699
 21
4210.17
  0
LINE
  8
0
 10
153.699
 20
4210.17
 11
153.829
 21
4210.3
  0
LINE
  8
0
 10
153.829
 20
4210.3
 11
153.971
 21
4210.42
  0
LINE
  8
0
 10
153.971
 20
4210.42
 11
154.125
 21
4210.52
  0
LINE
  8
0
 10
154.125
 20
4210.52
 11
154.288
 21
4210.6
  0
LINE
  8
0
 10
154.288
 20
4210.6
 11
154.459
 21
4210.66
  0
LINE
  8
0
 10
154.459
 20
4210.66
 11
154.636
 21
4210.71
  0
LINE
  8
0
 10
154.636
 20
4210.71
 11
154.817
 21
4210.74
  0
LINE
  8
0
 10
154.817
 20
4210.74
 11
155
 21
4210.75
  0
LINE
  8
0
 10
155
 20
4210.75
 11
155.183
 21
4210.74
  0
LINE
  8
0
 10
155.183
 20
4210.74
 11
155.364
 21
4210.71
  0
LINE
  8
0
 10
155.364
 20
4210.71
 11
155.541
 21
4210.66
  0
LINE
  8
0
 10
155.541
 20
4210.66
 11
155.712
 21
4210.6
  0
LINE
  8
0
 10
155.712
 20
4210.6
 11
155.875
 21
4210.52
  0
LINE
  8
0
 10
155.875
 20
4210.52
 11
156.029
 21
4210.42
  0
LINE
  8
0
 10
156.029
 20
4210.42
 11
156.171
 21
4210.3
  0
LINE
  8
0
 10
156.171
 20
4210.3
 11
156.301
 21
4210.17
  0
LINE
  8
0
 10
156.301
 20
4210.17
 11
156.416
 21
4210.03
  0
LINE
  8
0
 10
156.416
 20
4210.03
 11
156.516
 21
4209.88
  0
LINE
  8
0
 10
156.516
 20
4209.88
 11
156.599
 21
4209.71
  0
LINE
  8
0
 10
156.599
 20
4209.71
 11
156.664
 21
4209.54
  0
LINE
  8
0
 10
156.664
 20
4209.54
 11
156.712
 21
4209.36
  0
LINE
  8
0
 10
156.712
 20
4209.36
 11
156.74
 21
4209.18
  0
LINE
  8
0
 10
156.74
 20
4209.18
 11
156.75
 21
4209
  0
LINE
  8
0
 10
156.75
 20
4209
 11
156.74
 21
4208.82
  0
LINE
  8
0
 10
156.74
 20
4208.82
 11
156.712
 21
4208.64
  0
LINE
  8
0
 10
156.712
 20
4208.64
 11
156.664
 21
4208.46
  0
LINE
  8
0
 10
156.664
 20
4208.46
 11
156.599
 21
4208.29
  0
LINE
  8
0
 10
156.599
 20
4208.29
 11
156.516
 21
4208.12
  0
LINE
  8
0
 10
156.516
 20
4208.12
 11
156.416
 21
4207.97
  0
LINE
  8
0
 10
156.416
 20
4207.97
 11
156.301
 21
4207.83
  0
LINE
  8
0
 10
156.301
 20
4207.83
 11
156.171
 21
4207.7
  0
LINE
  8
0
 10
156.171
 20
4207.7
 11
156.029
 21
4207.58
  0
LINE
  8
0
 10
156.029
 20
4207.58
 11
155.875
 21
4207.48
  0
LINE
  8
0
 10
155.875
 20
4207.48
 11
155.712
 21
4207.4
  0
LINE
  8
0
 10
155.712
 20
4207.4
 11
155.541
 21
4207.34
  0
LINE
  8
0
 10
155.541
 20
4207.34
 11
155.364
 21
4207.29
  0
LINE
  8
0
 10
155.364
 20
4207.29
 11
155.183
 21
4207.26
  0
LINE
  8
0
 10
155.183
 20
4207.26
 11
155
 21
4207.25
  0
LINE
  8
0
 10
155
 20
4207.25
 11
154.817
 21
4207.26
  0
LINE
  8
0
 10
88.7283
 20
4089.33
 11
82.5253
 21
4090.31
  0
LINE
  8
0
 10
82.5253
 20
4090.31
 11
76.459
 21
4091.94
  0
LINE
  8
0
 10
76.459
 20
4091.94
 11
70.5958
 21
4094.19
  0
LINE
  8
0
 10
70.5958
 20
4094.19
 11
65
 21
4097.04
  0
LINE
  8
0
 10
65
 20
4097.04
 11
59.7329
 21
4100.46
  0
LINE
  8
0
 10
59.7329
 20
4100.46
 11
54.8522
 21
4104.41
  0
LINE
  8
0
 10
54.8522
 20
4104.41
 11
50.4113
 21
4108.85
  0
LINE
  8
0
 10
50.4113
 20
4108.85
 11
46.459
 21
4113.73
  0
LINE
  8
0
 10
46.459
 20
4113.73
 11
43.0385
 21
4119
  0
LINE
  8
0
 10
43.0385
 20
4119
 11
40.1873
 21
4124.6
  0
LINE
  8
0
 10
40.1873
 20
4124.6
 11
37.9366
 21
4130.46
  0
LINE
  8
0
 10
37.9366
 20
4130.46
 11
36.3111
 21
4136.53
  0
LINE
  8
0
 10
36.3111
 20
4136.53
 11
35.3287
 21
4142.73
  0
LINE
  8
0
 10
35.3287
 20
4142.73
 11
35
 21
4149
  0
LINE
  8
0
 10
35
 20
4149
 11
35.3287
 21
4155.27
  0
LINE
  8
0
 10
35.3287
 20
4155.27
 11
36.3111
 21
4161.47
  0
LINE
  8
0
 10
36.3111
 20
4161.47
 11
37.9366
 21
4167.54
  0
LINE
  8
0
 10
37.9366
 20
4167.54
 11
40.1873
 21
4173.4
  0
LINE
  8
0
 10
40.1873
 20
4173.4
 11
43.0385
 21
4179
  0
LINE
  8
0
 10
43.0385
 20
4179
 11
46.459
 21
4184.27
  0
LINE
  8
0
 10
46.459
 20
4184.27
 11
50.4113
 21
4189.15
  0
LINE
  8
0
 10
50.4113
 20
4189.15
 11
54.8522
 21
4193.59
  0
LINE
  8
0
 10
54.8522
 20
4193.59
 11
59.7329
 21
4197.54
  0
LINE
  8
0
 10
59.7329
 20
4197.54
 11
65
 21
4200.96
  0
LINE
  8
0
 10
65
 20
4200.96
 11
70.5958
 21
4203.81
  0
LINE
  8
0
 10
70.5958
 20
4203.81
 11
76.459
 21
4206.06
  0
LINE
  8
0
 10
76.459
 20
4206.06
 11
82.5253
 21
4207.69
  0
LINE
  8
0
 10
82.5253
 20
4207.69
 11
88.7283
 21
4208.67
  0
LINE
  8
0
 10
88.7283
 20
4208.67
 11
95
 21
4209
  0
LINE
  8
0
 10
95
 20
4209
 11
101.272
 21
4208.67
  0
LINE
  8
0
 10
101.272
 20
4208.67
 11
107.475
 21
4207.69
  0
LINE
  8
0
 10
107.475
 20
4207.69
 11
113.541
 21
4206.06
  0
LINE
  8
0
 10
113.541
 20
4206.06
 11
119.404
 21
4203.81
  0
LINE
  8
0
 10
119.404
 20
4203.81
 11
125
 21
4200.96
  0
LINE
  8
0
 10
125
 20
4200.96
 11
130.267
 21
4197.54
  0
LINE
  8
0
 10
130.267
 20
4197.54
 11
135.148
 21
4193.59
  0
LINE
  8
0
 10
135.148
 20
4193.59
 11
139.589
 21
4189.15
  0
LINE
  8
0
 10
139.589
 20
4189.15
 11
143.541
 21
4184.27
  0
LINE
  8
0
 10
143.541
 20
4184.27
 11
146.962
 21
4179
  0
LINE
  8
0
 10
146.962
 20
4179
 11
149.813
 21
4173.4
  0
LINE
  8
0
 10
149.813
 20
4173.4
 11
152.063
 21
4167.54
  0
LINE
  8
0
 10
152.063
 20
4167.54
 11
153.689
 21
4161.47
  0
LINE
  8
0
 10
153.689
 20
4161.47
 11
154.671
 21
4155.27
  0
LINE
  8
0
 10
154.671
 20
4155.27
 11
155
 21
4149
  0
LINE
  8
0
 10
155
 20
4149
 11
154.671
 21
4142.73
  0
LINE
  8
0
 10
154.671
 20
4142.73
 11
153.689
 21
4136.53
  0
LINE
  8
0
 10
153.689
 20
4136.53
 11
152.063
 21
4130.46
  0
LINE
  8
0
 10
152.063
 20
4130.46
 11
149.813
 21
4124.6
  0
LINE
  8
0
 10
149.813
 20
4124.6
 11
146.962
 21
4119
  0
LINE
  8
0
 10
146.962
 20
4119
 11
143.541
 21
4113.73
  0
LINE
  8
0
 10
143.541
 20
4113.73
 11
139.589
 21
4108.85
  0
LINE
  8
0
 10
139.589
 20
4108.85
 11
135.148
 21
4104.41
  0
LINE
  8
0
 10
135.148
 20
4104.41
 11
130.267
 21
4100.46
  0
LINE
  8
0
 10
130.267
 20
4100.46
 11
125
 21
4097.04
  0
LINE
  8
0
 10
125
 20
4097.04
 11
119.404
 21
4094.19
  0
LINE
  8
0
 10
119.404
 20
4094.19
 11
113.541
 21
4091.94
  0
LINE
  8
0
 10
113.541
 20
4091.94
 11
107.475
 21
4090.31
  0
LINE
  8
0
 10
107.475
 20
4090.31
 11
101.272
 21
4089.33
  0
LINE
  8
0
 10
101.272
 20
4089.33
 11
95
 21
4089
  0
LINE
  8
0
 10
95
 20
4089
 11
88.7283
 21
4089.33
  0
LINE
  8
0
 10
34.8171
 20
4087.26
 11
34.6362
 21
4087.29
  0
LINE
  8
0
 10
34.6362
 20
4087.29
 11
34.4592
 21
4087.34
  0
LINE
  8
0
 10
34.4592
 20
4087.34
 11
34.2882
 21
4087.4
  0
LINE
  8
0
 10
34.2882
 20
4087.4
 11
34.125
 21
4087.48
  0
LINE
  8
0
 10
34.125
 20
4087.48
 11
33.9714
 21
4087.58
  0
LINE
  8
0
 10
33.9714
 20
4087.58
 11
33.829
 21
4087.7
  0
LINE
  8
0
 10
33.829
 20
4087.7
 11
33.6995
 21
4087.83
  0
LINE
  8
0
 10
33.6995
 20
4087.83
 11
33.5842
 21
4087.97
  0
LINE
  8
0
 10
33.5842
 20
4087.97
 11
33.4845
 21
4088.12
  0
LINE
  8
0
 10
33.4845
 20
4088.12
 11
33.4013
 21
4088.29
  0
LINE
  8
0
 10
33.4013
 20
4088.29
 11
33.3356
 21
4088.46
  0
LINE
  8
0
 10
33.3356
 20
4088.46
 11
33.2882
 21
4088.64
  0
LINE
  8
0
 10
33.2882
 20
4088.64
 11
33.2596
 21
4088.82
  0
LINE
  8
0
 10
33.2596
 20
4088.82
 11
33.25
 21
4089
  0
LINE
  8
0
 10
33.25
 20
4089
 11
33.2596
 21
4089.18
  0
LINE
  8
0
 10
33.2596
 20
4089.18
 11
33.2882
 21
4089.36
  0
LINE
  8
0
 10
33.2882
 20
4089.36
 11
33.3356
 21
4089.54
  0
LINE
  8
0
 10
33.3356
 20
4089.54
 11
33.4013
 21
4089.71
  0
LINE
  8
0
 10
33.4013
 20
4089.71
 11
33.4845
 21
4089.88
  0
LINE
  8
0
 10
33.4845
 20
4089.88
 11
33.5842
 21
4090.03
  0
LINE
  8
0
 10
33.5842
 20
4090.03
 11
33.6995
 21
4090.17
  0
LINE
  8
0
 10
33.6995
 20
4090.17
 11
33.829
 21
4090.3
  0
LINE
  8
0
 10
33.829
 20
4090.3
 11
33.9714
 21
4090.42
  0
LINE
  8
0
 10
33.9714
 20
4090.42
 11
34.125
 21
4090.52
  0
LINE
  8
0
 10
34.125
 20
4090.52
 11
34.2882
 21
4090.6
  0
LINE
  8
0
 10
34.2882
 20
4090.6
 11
34.4592
 21
4090.66
  0
LINE
  8
0
 10
34.4592
 20
4090.66
 11
34.6362
 21
4090.71
  0
LINE
  8
0
 10
34.6362
 20
4090.71
 11
34.8171
 21
4090.74
  0
LINE
  8
0
 10
34.8171
 20
4090.74
 11
35
 21
4090.75
  0
LINE
  8
0
 10
35
 20
4090.75
 11
35.1829
 21
4090.74
  0
LINE
  8
0
 10
35.1829
 20
4090.74
 11
35.3638
 21
4090.71
  0
LINE
  8
0
 10
35.3638
 20
4090.71
 11
35.5408
 21
4090.66
  0
LINE
  8
0
 10
35.5408
 20
4090.66
 11
35.7118
 21
4090.6
  0
LINE
  8
0
 10
35.7118
 20
4090.6
 11
35.875
 21
4090.52
  0
LINE
  8
0
 10
35.875
 20
4090.52
 11
36.0286
 21
4090.42
  0
LINE
  8
0
 10
36.0286
 20
4090.42
 11
36.171
 21
4090.3
  0
LINE
  8
0
 10
36.171
 20
4090.3
 11
36.3005
 21
4090.17
  0
LINE
  8
0
 10
36.3005
 20
4090.17
 11
36.4158
 21
4090.03
  0
LINE
  8
0
 10
36.4158
 20
4090.03
 11
36.5155
 21
4089.88
  0
LINE
  8
0
 10
36.5155
 20
4089.88
 11
36.5987
 21
4089.71
  0
LINE
  8
0
 10
36.5987
 20
4089.71
 11
36.6643
 21
4089.54
  0
LINE
  8
0
 10
36.6643
 20
4089.54
 11
36.7117
 21
4089.36
  0
LINE
  8
0
 10
36.7117
 20
4089.36
 11
36.7404
 21
4089.18
  0
LINE
  8
0
 10
36.7404
 20
4089.18
 11
36.75
 21
4089
  0
LINE
  8
0
 10
36.75
 20
4089
 11
36.7404
 21
4088.82
  0
LINE
  8
0
 10
36.7404
 20
4088.82
 11
36.7117
 21
4088.64
  0
LINE
  8
0
 10
36.7117
 20
4088.64
 11
36.6643
 21
4088.46
  0
LINE
  8
0
 10
36.6643
 20
4088.46
 11
36.5987
 21
4088.29
  0
LINE
  8
0
 10
36.5987
 20
4088.29
 11
36.5155
 21
4088.12
  0
LINE
  8
0
 10
36.5155
 20
4088.12
 11
36.4158
 21
4087.97
  0
LINE
  8
0
 10
36.4158
 20
4087.97
 11
36.3005
 21
4087.83
  0
LINE
  8
0
 10
36.3005
 20
4087.83
 11
36.171
 21
4087.7
  0
LINE
  8
0
 10
36.171
 20
4087.7
 11
36.0286
 21
4087.58
  0
LINE
  8
0
 10
36.0286
 20
4087.58
 11
35.875
 21
4087.48
  0
LINE
  8
0
 10
35.875
 20
4087.48
 11
35.7118
 21
4087.4
  0
LINE
  8
0
 10
35.7118
 20
4087.4
 11
35.5408
 21
4087.34
  0
LINE
  8
0
 10
35.5408
 20
4087.34
 11
35.3638
 21
4087.29
  0
LINE
  8
0
 10
35.3638
 20
4087.29
 11
35.1829
 21
4087.26
  0
LINE
  8
0
 10
35.1829
 20
4087.26
 11
35
 21
4087.25
  0
LINE
  8
0
 10
35
 20
4087.25
 11
34.8171
 21
4087.26
  0
LINE
  8
0
 10
154.817
 20
4087.26
 11
154.636
 21
4087.29
  0
LINE
  8
0
 10
154.636
 20
4087.29
 11
154.459
 21
4087.34
  0
LINE
  8
0
 10
154.459
 20
4087.34
 11
154.288
 21
4087.4
  0
LINE
  8
0
 10
154.288
 20
4087.4
 11
154.125
 21
4087.48
  0
LINE
  8
0
 10
154.125
 20
4087.48
 11
153.971
 21
4087.58
  0
LINE
  8
0
 10
153.971
 20
4087.58
 11
153.829
 21
4087.7
  0
LINE
  8
0
 10
153.829
 20
4087.7
 11
153.699
 21
4087.83
  0
LINE
  8
0
 10
153.699
 20
4087.83
 11
153.584
 21
4087.97
  0
LINE
  8
0
 10
153.584
 20
4087.97
 11
153.484
 21
4088.12
  0
LINE
  8
0
 10
153.484
 20
4088.12
 11
153.401
 21
4088.29
  0
LINE
  8
0
 10
153.401
 20
4088.29
 11
153.336
 21
4088.46
  0
LINE
  8
0
 10
153.336
 20
4088.46
 11
153.288
 21
4088.64
  0
LINE
  8
0
 10
153.288
 20
4088.64
 11
153.26
 21
4088.82
  0
LINE
  8
0
 10
153.26
 20
4088.82
 11
153.25
 21
4089
  0
LINE
  8
0
 10
153.25
 20
4089
 11
153.26
 21
4089.18
  0
LINE
  8
0
 10
153.26
 20
4089.18
 11
153.288
 21
4089.36
  0
LINE
  8
0
 10
153.288
 20
4089.36
 11
153.336
 21
4089.54
  0
LINE
  8
0
 10
153.336
 20
4089.54
 11
153.401
 21
4089.71
  0
LINE
  8
0
 10
153.401
 20
4089.71
 11
153.484
 21
4089.88
  0
LINE
  8
0
 10
153.484
 20
4089.88
 11
153.584
 21
4090.03
  0
LINE
  8
0
 10
153.584
 20
4090.03
 11
153.699
 21
4090.17
  0
LINE
  8
0
 10
153.699
 20
4090.17
 11
153.829
 21
4090.3
  0
LINE
  8
0
 10
153.829
 20
4090.3
 11
153.971
 21
4090.42
  0
LINE
  8
0
 10
153.971
 20
4090.42
 11
154.125
 21
4090.52
  0
LINE
  8
0
 10
154.125
 20
4090.52
 11
154.288
 21
4090.6
  0
LINE
  8
0
 10
154.288
 20
4090.6
 11
154.459
 21
4090.66
  0
LINE
  8
0
 10
154.459
 20
4090.66
 11
154.636
 21
4090.71
  0
LINE
  8
0
 10
154.636
 20
4090.71
 11
154.817
 21
4090.74
  0
LINE
  8
0
 10
154.817
 20
4090.74
 11
155
 21
4090.75
  0
LINE
  8
0
 10
155
 20
4090.75
 11
155.183
 21
4090.74
  0
LINE
  8
0
 10
155.183
 20
4090.74
 11
155.364
 21
4090.71
  0
LINE
  8
0
 10
155.364
 20
4090.71
 11
155.541
 21
4090.66
  0
LINE
  8
0
 10
155.541
 20
4090.66
 11
155.712
 21
4090.6
  0
LINE
  8
0
 10
155.712
 20
4090.6
 11
155.875
 21
4090.52
  0
LINE
  8
0
 10
155.875
 20
4090.52
 11
156.029
 21
4090.42
  0
LINE
  8
0
 10
156.029
 20
4090.42
 11
156.171
 21
4090.3
  0
LINE
  8
0
 10
156.171
 20
4090.3
 11
156.301
 21
4090.17
  0
LINE
  8
0
 10
156.301
 20
4090.17
 11
156.416
 21
4090.03
  0
LINE
  8
0
 10
156.416
 20
4090.03
 11
156.516
 21
4089.88
  0
LINE
  8
0
 10
156.516
 20
4089.88
 11
156.599
 21
4089.71
  0
LINE
  8
0
 10
156.599
 20
4089.71
 11
156.664
 21
4089.54
  0
LINE
  8
0
 10
156.664
 20
4089.54
 11
156.712
 21
4089.36
  0
LINE
  8
0
 10
156.712
 20
4089.36
 11
156.74
 21
4089.18
  0
LINE
  8
0
 10
156.74
 20
4089.18
 11
156.75
 21
4089
  0
LINE
  8
0
 10
156.75
 20
4089
 11
156.74
 21
4088.82
  0
LINE
  8
0
 10
156.74
 20
4088.82
 11
156.712
 21
4088.64
  0
LINE
  8
0
 10
156.712
 20
4088.64
 11
156.664
 21
4088.46
  0
LINE
  8
0
 10
156.664
 20
4088.46
 11
156.599
 21
4088.29
  0
LINE
  8
0
 10
156.599
 20
4088.29
 11
156.516
 21
4088.12
  0
LINE
  8
0
 10
156.516
 20
4088.12
 11
156.416
 21
4087.97
  0
LINE
  8
0
 10
156.416
 20
4087.97
 11
156.301
 21
4087.83
  0
LINE
  8
0
 10
156.301
 20
4087.83
 11
156.171
 21
4087.7
  0
LINE
  8
0
 10
156.171
 20
4087.7
 11
156.029
 21
4087.58
  0
LINE
  8
0
 10
156.029
 20
4087.58
 11
155.875
 21
4087.48
  0
LINE
  8
0
 10
155.875
 20
4087.48
 11
155.712
 21
4087.4
  0
LINE
  8
0
 10
155.712
 20
4087.4
 11
155.541
 21
4087.34
  0
LINE
  8
0
 10
155.541
 20
4087.34
 11
155.364
 21
4087.29
  0
LINE
  8
0
 10
155.364
 20
4087.29
 11
155.183
 21
4087.26
  0
LINE
  8
0
 10
155.183
 20
4087.26
 11
155
 21
4087.25
  0
LINE
  8
0
 10
155
 20
4087.25
 11
154.817
 21
4087.26
  0
LINE
  8
0
 10
0
 20
4024
 11
-4
 21
4024
  0
LINE
  8
0
 10
-4
 20
4024
 11
-4
 21
4020
  0
LINE
  8
0
 10
-4
 20
4020
 11
0
 21
4020
  0
LINE
  8
0
 10
0
 20
4020
 11
0
 21
4024
  0
LINE
  8
0
 10
18.4
 20
3630
 11
27.6
 21
3630
  0
LINE
  8
0
 10
27.6
 20
3630
 11
27.6
 21
3626
  0
LINE
  8
0
 10
27.6
 20
3626
 11
36.8
 21
3626
  0
LINE
  8
0
 10
36.8
 20
3626
 11
36.8
 21
3630
  0
LINE
  8
0
 10
36.8
 20
3630
 11
46
 21
3630
  0
LINE
  8
0
 10
46
 20
3630
 11
46
 21
3820
  0
LINE
  8
0
 10
46
 20
3820
 11
36.8
 21
3820
  0
LINE
  8
0
 10
36.8
 20
3820
 11
36.8
 21
3824
  0
LINE
  8
0
 10
36.8
 20
3824
 11
27.6
 21
3824
  0
LINE
  8
0
 10
27.6
 20
3824
 11
27.6
 21
3820
  0
LINE
  8
0
 10
27.6
 20
3820
 11
18.4
 21
3820
  0
LINE
  8
0
 10
18.4
 20
3820
 11
18.4
 21
3824
  0
LINE
  8
0
 10
18.4
 20
3824
 11
9.2
 21
3824
  0
LINE
  8
0
 10
9.2
 20
3824
 11
9.2
 21
3820
  0
LINE
  8
0
 10
9.2
 20
3820
 11
0
 21
3820
  0
LINE
  8
0
 10
0
 20
3820
 11
0
 21
3782
  0
LINE
  8
0
 10
0
 20
3782
 11
-4
 21
3782
  0
LINE
  8
0
 10
-4
 20
3782
 11
-4
 21
3744
  0
LINE
  8
0
 10
-4
 20
3744
 11
0
 21
3744
  0
LINE
  8
0
 10
0
 20
3744
 11
0
 21
3706
  0
LINE
  8
0
 10
0
 20
3706
 11
-4
 21
3706
  0
LINE
  8
0
 10
-4
 20
3706
 11
-4
 21
3668
  0
LINE
  8
0
 10
-4
 20
3668
 11
0
 21
3668
  0
LINE
  8
0
 10
0
 20
3668
 11
0
 21
3630
  0
LINE
  8
0
 10
0
 20
3630
 11
9.2
 21
3630
  0
LINE
  8
0
 10
9.2
 20
3630
 11
9.2
 21
3626
  0
LINE
  8
0
 10
9.2
 20
3626
 11
18.4
 21
3626
  0
LINE
  8
0
 10
18.4
 20
3626
 11
18.4
 21
3630
  0
LINE
  8
0
 10
9.2
 20
3220
 11
18.4
 21
3220
  0
LINE
  8
0
 10
18.4
 20
3220
 11
18.4
 21
3216
  0
LINE
  8
0
 10
18.4
 20
3216
 11
27.6
 21
3216
  0
LINE
  8
0
 10
27.6
 20
3216
 11
27.6
 21
3220
  0
LINE
  8
0
 10
27.6
 20
3220
 11
36.8
 21
3220
  0
LINE
  8
0
 10
36.8
 20
3220
 11
36.8
 21
3216
  0
LINE
  8
0
 10
36.8
 20
3216
 11
46
 21
3216
  0
LINE
  8
0
 10
46
 20
3216
 11
46
 21
3624
  0
LINE
  8
0
 10
46
 20
3624
 11
36.8
 21
3624
  0
LINE
  8
0
 10
36.8
 20
3624
 11
36.8
 21
3620
  0
LINE
  8
0
 10
36.8
 20
3620
 11
27.6
 21
3620
  0
LINE
  8
0
 10
27.6
 20
3620
 11
27.6
 21
3624
  0
LINE
  8
0
 10
27.6
 20
3624
 11
18.4
 21
3624
  0
LINE
  8
0
 10
18.4
 20
3624
 11
18.4
 21
3620
  0
LINE
  8
0
 10
18.4
 20
3620
 11
9.2
 21
3620
  0
LINE
  8
0
 10
9.2
 20
3620
 11
9.2
 21
3624
  0
LINE
  8
0
 10
9.2
 20
3624
 11
0
 21
3624
  0
LINE
  8
0
 10
0
 20
3624
 11
0
 21
3540
  0
LINE
  8
0
 10
0
 20
3540
 11
-4
 21
3540
  0
LINE
  8
0
 10
-4
 20
3540
 11
-4
 21
3460
  0
LINE
  8
0
 10
-4
 20
3460
 11
0
 21
3460
  0
LINE
  8
0
 10
0
 20
3460
 11
0
 21
3380
  0
LINE
  8
0
 10
0
 20
3380
 11
-4
 21
3380
  0
LINE
  8
0
 10
-4
 20
3380
 11
-4
 21
3300
  0
LINE
  8
0
 10
-4
 20
3300
 11
0
 21
3300
  0
LINE
  8
0
 10
0
 20
3300
 11
0
 21
3220
  0
LINE
  8
0
 10
0
 20
3220
 11
-4
 21
3220
  0
LINE
  8
0
 10
-4
 20
3220
 11
-4
 21
3216
  0
LINE
  8
0
 10
-4
 20
3216
 11
9.2
 21
3216
  0
LINE
  8
0
 10
9.2
 20
3216
 11
9.2
 21
3220
  0
LINE
  8
0
 10
11.4547
 20
3414.05
 11
10.4209
 21
3414.22
  0
LINE
  8
0
 10
10.4209
 20
3414.22
 11
9.40982
 21
3414.49
  0
LINE
  8
0
 10
9.40982
 20
3414.49
 11
8.43263
 21
3414.86
  0
LINE
  8
0
 10
8.43263
 20
3414.86
 11
7.5
 21
3415.34
  0
LINE
  8
0
 10
7.5
 20
3415.34
 11
6.62215
 21
3415.91
  0
LINE
  8
0
 10
6.62215
 20
3415.91
 11
5.80869
 21
3416.57
  0
LINE
  8
0
 10
5.80869
 20
3416.57
 11
5.06854
 21
3417.31
  0
LINE
  8
0
 10
5.06854
 20
3417.31
 11
4.40982
 21
3418.12
  0
LINE
  8
0
 10
4.40982
 20
3418.12
 11
3.83974
 21
3419
  0
LINE
  8
0
 10
3.83974
 20
3419
 11
3.36453
 21
3419.93
  0
LINE
  8
0
 10
3.36453
 20
3419.93
 11
2.98943
 21
3420.91
  0
LINE
  8
0
 10
2.98943
 20
3420.91
 11
2.71852
 21
3421.92
  0
LINE
  8
0
 10
2.71852
 20
3421.92
 11
2.55478
 21
3422.95
  0
LINE
  8
0
 10
2.55478
 20
3422.95
 11
2.5
 21
3424
  0
LINE
  8
0
 10
2.5
 20
3424
 11
2.55478
 21
3425.05
  0
LINE
  8
0
 10
2.55478
 20
3425.05
 11
2.71852
 21
3426.08
  0
LINE
  8
0
 10
2.71852
 20
3426.08
 11
2.98943
 21
3427.09
  0
LINE
  8
0
 10
2.98943
 20
3427.09
 11
3.36453
 21
3428.07
  0
LINE
  8
0
 10
3.36453
 20
3428.07
 11
3.83974
 21
3429
  0
LINE
  8
0
 10
3.83974
 20
3429
 11
4.40982
 21
3429.88
  0
LINE
  8
0
 10
4.40982
 20
3429.88
 11
5.06854
 21
3430.69
  0
LINE
  8
0
 10
5.06854
 20
3430.69
 11
5.80869
 21
3431.43
  0
LINE
  8
0
 10
5.80869
 20
3431.43
 11
6.62215
 21
3432.09
  0
LINE
  8
0
 10
6.62215
 20
3432.09
 11
7.5
 21
3432.66
  0
LINE
  8
0
 10
7.5
 20
3432.66
 11
8.43263
 21
3433.14
  0
LINE
  8
0
 10
8.43263
 20
3433.14
 11
9.40982
 21
3433.51
  0
LINE
  8
0
 10
9.40982
 20
3433.51
 11
10.4209
 21
3433.78
  0
LINE
  8
0
 10
10.4209
 20
3433.78
 11
11.4547
 21
3433.95
  0
LINE
  8
0
 10
11.4547
 20
3433.95
 11
12.5
 21
3434
  0
LINE
  8
0
 10
12.5
 20
3434
 11
13.5453
 21
3433.95
  0
LINE
  8
0
 10
13.5453
 20
3433.95
 11
14.5791
 21
3433.78
  0
LINE
  8
0
 10
14.5791
 20
3433.78
 11
15.5902
 21
3433.51
  0
LINE
  8
0
 10
15.5902
 20
3433.51
 11
16.5674
 21
3433.14
  0
LINE
  8
0
 10
16.5674
 20
3433.14
 11
17.5
 21
3432.66
  0
LINE
  8
0
 10
17.5
 20
3432.66
 11
18.3779
 21
3432.09
  0
LINE
  8
0
 10
18.3779
 20
3432.09
 11
19.1913
 21
3431.43
  0
LINE
  8
0
 10
19.1913
 20
3431.43
 11
19.9314
 21
3430.69
  0
LINE
  8
0
 10
19.9314
 20
3430.69
 11
20.5902
 21
3429.88
  0
LINE
  8
0
 10
20.5902
 20
3429.88
 11
21.1602
 21
3429
  0
LINE
  8
0
 10
21.1602
 20
3429
 11
21.6355
 21
3428.07
  0
LINE
  8
0
 10
21.6355
 20
3428.07
 11
22.0106
 21
3427.09
  0
LINE
  8
0
 10
22.0106
 20
3427.09
 11
22.2815
 21
3426.08
  0
LINE
  8
0
 10
22.2815
 20
3426.08
 11
22.4452
 21
3425.05
  0
LINE
  8
0
 10
22.4452
 20
3425.05
 11
22.5
 21
3424
  0
LINE
  8
0
 10
22.5
 20
3424
 11
22.4452
 21
3422.95
  0
LINE
  8
0
 10
22.4452
 20
3422.95
 11
22.2815
 21
3421.92
  0
LINE
  8
0
 10
22.2815
 20
3421.92
 11
22.0106
 21
3420.91
  0
LINE
  8
0
 10
22.0106
 20
3420.91
 11
21.6355
 21
3419.93
  0
LINE
  8
0
 10
21.6355
 20
3419.93
 11
21.1602
 21
3419
  0
LINE
  8
0
 10
21.1602
 20
3419
 11
20.5902
 21
3418.12
  0
LINE
  8
0
 10
20.5902
 20
3418.12
 11
19.9314
 21
3417.31
  0
LINE
  8
0
 10
19.9314
 20
3417.31
 11
19.1913
 21
3416.57
  0
LINE
  8
0
 10
19.1913
 20
3416.57
 11
18.3779
 21
3415.91
  0
LINE
  8
0
 10
18.3779
 20
3415.91
 11
17.5
 21
3415.34
  0
LINE
  8
0
 10
17.5
 20
3415.34
 11
16.5674
 21
3414.86
  0
LINE
  8
0
 10
16.5674
 20
3414.86
 11
15.5902
 21
3414.49
  0
LINE
  8
0
 10
15.5902
 20
3414.49
 11
14.5791
 21
3414.22
  0
LINE
  8
0
 10
14.5791
 20
3414.22
 11
13.5453
 21
3414.05
  0
LINE
  8
0
 10
13.5453
 20
3414.05
 11
12.5
 21
3414
  0
LINE
  8
0
 10
12.5
 20
3414
 11
11.4547
 21
3414.05
  0
LINE
  8
0
 10
9.2
 20
2810
 11
18.4
 21
2810
  0
LINE
  8
0
 10
18.4
 20
2810
 11
18.4
 21
2806
  0
LINE
  8
0
 10
18.4
 20
2806
 11
27.6
 21
2806
  0
LINE
  8
0
 10
27.6
 20
2806
 11
27.6
 21
2810
  0
LINE
  8
0
 10
27.6
 20
2810
 11
36.8
 21
2810
  0
LINE
  8
0
 10
36.8
 20
2810
 11
36.8
 21
2806
  0
LINE
  8
0
 10
36.8
 20
2806
 11
46
 21
2806
  0
LINE
  8
0
 10
46
 20
2806
 11
46
 21
3214
  0
LINE
  8
0
 10
46
 20
3214
 11
36.8
 21
3214
  0
LINE
  8
0
 10
36.8
 20
3214
 11
36.8
 21
3210
  0
LINE
  8
0
 10
36.8
 20
3210
 11
27.6
 21
3210
  0
LINE
  8
0
 10
27.6
 20
3210
 11
27.6
 21
3214
  0
LINE
  8
0
 10
27.6
 20
3214
 11
18.4
 21
3214
  0
LINE
  8
0
 10
18.4
 20
3214
 11
18.4
 21
3210
  0
LINE
  8
0
 10
18.4
 20
3210
 11
9.2
 21
3210
  0
LINE
  8
0
 10
9.2
 20
3210
 11
9.2
 21
3214
  0
LINE
  8
0
 10
9.2
 20
3214
 11
-4
 21
3214
  0
LINE
  8
0
 10
-4
 20
3214
 11
-4
 21
3210
  0
LINE
  8
0
 10
-4
 20
3210
 11
0
 21
3210
  0
LINE
  8
0
 10
0
 20
3210
 11
0
 21
3130
  0
LINE
  8
0
 10
0
 20
3130
 11
-4
 21
3130
  0
LINE
  8
0
 10
-4
 20
3130
 11
-4
 21
3050
  0
LINE
  8
0
 10
-4
 20
3050
 11
0
 21
3050
  0
LINE
  8
0
 10
0
 20
3050
 11
0
 21
2970
  0
LINE
  8
0
 10
0
 20
2970
 11
-4
 21
2970
  0
LINE
  8
0
 10
-4
 20
2970
 11
-4
 21
2890
  0
LINE
  8
0
 10
-4
 20
2890
 11
0
 21
2890
  0
LINE
  8
0
 10
0
 20
2890
 11
0
 21
2810
  0
LINE
  8
0
 10
0
 20
2810
 11
-4
 21
2810
  0
LINE
  8
0
 10
-4
 20
2810
 11
-4
 21
2806
  0
LINE
  8
0
 10
-4
 20
2806
 11
9.2
 21
2806
  0
LINE
  8
0
 10
9.2
 20
2806
 11
9.2
 21
2810
  0
LINE
  8
0
 10
98.4
 20
2208
 11
196.8
 21
2208
  0
LINE
  8
0
 10
196.8
 20
2208
 11
196.8
 21
2204
  0
LINE
  8
0
 10
196.8
 20
2204
 11
295.2
 21
2204
  0
LINE
  8
0
 10
295.2
 20
2204
 11
295.2
 21
2208
  0
LINE
  8
0
 10
295.2
 20
2208
 11
393.6
 21
2208
  0
LINE
  8
0
 10
393.6
 20
2208
 11
393.6
 21
2204
  0
LINE
  8
0
 10
393.6
 20
2204
 11
492
 21
2204
  0
LINE
  8
0
 10
492
 20
2204
 11
492
 21
2208
  0
LINE
  8
0
 10
492
 20
2208
 11
496
 21
2208
  0
LINE
  8
0
 10
496
 20
2208
 11
496
 21
2326.4
  0
LINE
  8
0
 10
496
 20
2326.4
 11
492
 21
2326.4
  0
LINE
  8
0
 10
492
 20
2326.4
 11
492
 21
2444.8
  0
LINE
  8
0
 10
492
 20
2444.8
 11
496
 21
2444.8
  0
LINE
  8
0
 10
496
 20
2444.8
 11
496
 21
2563.2
  0
LINE
  8
0
 10
496
 20
2563.2
 11
492
 21
2563.2
  0
LINE
  8
0
 10
492
 20
2563.2
 11
492
 21
2681.6
  0
LINE
  8
0
 10
492
 20
2681.6
 11
496
 21
2681.6
  0
LINE
  8
0
 10
496
 20
2681.6
 11
496
 21
2800
  0
LINE
  8
0
 10
496
 20
2800
 11
492
 21
2800
  0
LINE
  8
0
 10
492
 20
2800
 11
492
 21
2804
  0
LINE
  8
0
 10
492
 20
2804
 11
393.6
 21
2804
  0
LINE
  8
0
 10
393.6
 20
2804
 11
393.6
 21
2800
  0
LINE
  8
0
 10
393.6
 20
2800
 11
295.2
 21
2800
  0
LINE
  8
0
 10
295.2
 20
2800
 11
295.2
 21
2804
  0
LINE
  8
0
 10
295.2
 20
2804
 11
196.8
 21
2804
  0
LINE
  8
0
 10
196.8
 20
2804
 11
196.8
 21
2800
  0
LINE
  8
0
 10
196.8
 20
2800
 11
98.4
 21
2800
  0
LINE
  8
0
 10
98.4
 20
2800
 11
98.4
 21
2804
  0
LINE
  8
0
 10
98.4
 20
2804
 11
0
 21
2804
  0
LINE
  8
0
 10
0
 20
2804
 11
0
 21
2800
  0
LINE
  8
0
 10
0
 20
2800
 11
-4
 21
2800
  0
LINE
  8
0
 10
-4
 20
2800
 11
-4
 21
2681.6
  0
LINE
  8
0
 10
-4
 20
2681.6
 11
0
 21
2681.6
  0
LINE
  8
0
 10
0
 20
2681.6
 11
0
 21
2563.2
  0
LINE
  8
0
 10
0
 20
2563.2
 11
-4
 21
2563.2
  0
LINE
  8
0
 10
-4
 20
2563.2
 11
-4
 21
2444.8
  0
LINE
  8
0
 10
-4
 20
2444.8
 11
0
 21
2444.8
  0
LINE
  8
0
 10
0
 20
2444.8
 11
0
 21
2326.4
  0
LINE
  8
0
 10
0
 20
2326.4
 11
-4
 21
2326.4
  0
LINE
  8
0
 10
-4
 20
2326.4
 11
-4
 21
2208
  0
LINE
  8
0
 10
-4
 20
2208
 11
0
 21
2208
  0
LINE
  8
0
 10
0
 20
2208
 11
0
 21
2204
  0
LINE
  8
0
 10
0
 20
2204
 11
98.4
 21
2204
  0
LINE
  8
0
 10
98.4
 20
2204
 11
98.4
 21
2208
  0
LINE
  8
0
 10
114.728
 20
2533.33
 11
108.525
 21
2534.31
  0
LINE
  8
0
 10
108.525
 20
2534.31
 11
102.459
 21
2535.94
  0
LINE
  8
0
 10
102.459
 20
2535.94
 11
96.5958
 21
2538.19
  0
LINE
  8
0
 10
96.5958
 20
2538.19
 11
91
 21
2541.04
  0
LINE
  8
0
 10
91
 20
2541.04
 11
85.7329
 21
2544.46
  0
LINE
  8
0
 10
85.7329
 20
2544.46
 11
80.8522
 21
2548.41
  0
LINE
  8
0
 10
80.8522
 20
2548.41
 11
76.4113
 21
2552.85
  0
LINE
  8
0
 10
76.4113
 20
2552.85
 11
72.459
 21
2557.73
  0
LINE
  8
0
 10
72.459
 20
2557.73
 11
69.0385
 21
2563
  0
LINE
  8
0
 10
69.0385
 20
2563
 11
66.1873
 21
2568.6
  0
LINE
  8
0
 10
66.1873
 20
2568.6
 11
63.9366
 21
2574.46
  0
LINE
  8
0
 10
63.9366
 20
2574.46
 11
62.3111
 21
2580.53
  0
LINE
  8
0
 10
62.3111
 20
2580.53
 11
61.3287
 21
2586.73
  0
LINE
  8
0
 10
61.3287
 20
2586.73
 11
61
 21
2593
  0
LINE
  8
0
 10
61
 20
2593
 11
61.3287
 21
2599.27
  0
LINE
  8
0
 10
61.3287
 20
2599.27
 11
62.3111
 21
2605.47
  0
LINE
  8
0
 10
62.3111
 20
2605.47
 11
63.9366
 21
2611.54
  0
LINE
  8
0
 10
63.9366
 20
2611.54
 11
66.1873
 21
2617.4
  0
LINE
  8
0
 10
66.1873
 20
2617.4
 11
69.0385
 21
2623
  0
LINE
  8
0
 10
69.0385
 20
2623
 11
72.459
 21
2628.27
  0
LINE
  8
0
 10
72.459
 20
2628.27
 11
76.4113
 21
2633.15
  0
LINE
  8
0
 10
76.4113
 20
2633.15
 11
80.8522
 21
2637.59
  0
LINE
  8
0
 10
80.8522
 20
2637.59
 11
85.7329
 21
2641.54
  0
LINE
  8
0
 10
85.7329
 20
2641.54
 11
91
 21
2644.96
  0
LINE
  8
0
 10
91
 20
2644.96
 11
96.5958
 21
2647.81
  0
LINE
  8
0
 10
96.5958
 20
2647.81
 11
102.459
 21
2650.06
  0
LINE
  8
0
 10
102.459
 20
2650.06
 11
108.525
 21
2651.69
  0
LINE
  8
0
 10
108.525
 20
2651.69
 11
114.728
 21
2652.67
  0
LINE
  8
0
 10
114.728
 20
2652.67
 11
121
 21
2653
  0
LINE
  8
0
 10
121
 20
2653
 11
127.272
 21
2652.67
  0
LINE
  8
0
 10
127.272
 20
2652.67
 11
133.475
 21
2651.69
  0
LINE
  8
0
 10
133.475
 20
2651.69
 11
139.541
 21
2650.06
  0
LINE
  8
0
 10
139.541
 20
2650.06
 11
145.404
 21
2647.81
  0
LINE
  8
0
 10
145.404
 20
2647.81
 11
151
 21
2644.96
  0
LINE
  8
0
 10
151
 20
2644.96
 11
156.267
 21
2641.54
  0
LINE
  8
0
 10
156.267
 20
2641.54
 11
161.148
 21
2637.59
  0
LINE
  8
0
 10
161.148
 20
2637.59
 11
165.589
 21
2633.15
  0
LINE
  8
0
 10
165.589
 20
2633.15
 11
169.541
 21
2628.27
  0
LINE
  8
0
 10
169.541
 20
2628.27
 11
172.962
 21
2623
  0
LINE
  8
0
 10
172.962
 20
2623
 11
175.813
 21
2617.4
  0
LINE
  8
0
 10
175.813
 20
2617.4
 11
178.063
 21
2611.54
  0
LINE
  8
0
 10
178.063
 20
2611.54
 11
179.689
 21
2605.47
  0
LINE
  8
0
 10
179.689
 20
2605.47
 11
180.671
 21
2599.27
  0
LINE
  8
0
 10
180.671
 20
2599.27
 11
181
 21
2593
  0
LINE
  8
0
 10
181
 20
2593
 11
180.671
 21
2586.73
  0
LINE
  8
0
 10
180.671
 20
2586.73
 11
179.689
 21
2580.53
  0
LINE
  8
0
 10
179.689
 20
2580.53
 11
178.063
 21
2574.46
  0
LINE
  8
0
 10
178.063
 20
2574.46
 11
175.813
 21
2568.6
  0
LINE
  8
0
 10
175.813
 20
2568.6
 11
172.962
 21
2563
  0
LINE
  8
0
 10
172.962
 20
2563
 11
169.541
 21
2557.73
  0
LINE
  8
0
 10
169.541
 20
2557.73
 11
165.589
 21
2552.85
  0
LINE
  8
0
 10
165.589
 20
2552.85
 11
161.148
 21
2548.41
  0
LINE
  8
0
 10
161.148
 20
2548.41
 11
156.267
 21
2544.46
  0
LINE
  8
0
 10
156.267
 20
2544.46
 11
151
 21
2541.04
  0
LINE
  8
0
 10
151
 20
2541.04
 11
145.404
 21
2538.19
  0
LINE
  8
0
 10
145.404
 20
2538.19
 11
139.541
 21
2535.94
  0
LINE
  8
0
 10
139.541
 20
2535.94
 11
133.475
 21
2534.31
  0
LINE
  8
0
 10
133.475
 20
2534.31
 11
127.272
 21
2533.33
  0
LINE
  8
0
 10
127.272
 20
2533.33
 11
121
 21
2533
  0
LINE
  8
0
 10
121
 20
2533
 11
114.728
 21
2533.33
  0
LINE
  8
0
 10
114.728
 20
2363.33
 11
108.525
 21
2364.31
  0
LINE
  8
0
 10
108.525
 20
2364.31
 11
102.459
 21
2365.94
  0
LINE
  8
0
 10
102.459
 20
2365.94
 11
96.5958
 21
2368.19
  0
LINE
  8
0
 10
96.5958
 20
2368.19
 11
91
 21
2371.04
  0
LINE
  8
0
 10
91
 20
2371.04
 11
85.7329
 21
2374.46
  0
LINE
  8
0
 10
85.7329
 20
2374.46
 11
80.8522
 21
2378.41
  0
LINE
  8
0
 10
80.8522
 20
2378.41
 11
76.4113
 21
2382.85
  0
LINE
  8
0
 10
76.4113
 20
2382.85
 11
72.459
 21
2387.73
  0
LINE
  8
0
 10
72.459
 20
2387.73
 11
69.0385
 21
2393
  0
LINE
  8
0
 10
69.0385
 20
2393
 11
66.1873
 21
2398.6
  0
LINE
  8
0
 10
66.1873
 20
2398.6
 11
63.9366
 21
2404.46
  0
LINE
  8
0
 10
63.9366
 20
2404.46
 11
62.3111
 21
2410.53
  0
LINE
  8
0
 10
62.3111
 20
2410.53
 11
61.3287
 21
2416.73
  0
LINE
  8
0
 10
61.3287
 20
2416.73
 11
61
 21
2423
  0
LINE
  8
0
 10
61
 20
2423
 11
61.3287
 21
2429.27
  0
LINE
  8
0
 10
61.3287
 20
2429.27
 11
62.3111
 21
2435.47
  0
LINE
  8
0
 10
62.3111
 20
2435.47
 11
63.9366
 21
2441.54
  0
LINE
  8
0
 10
63.9366
 20
2441.54
 11
66.1873
 21
2447.4
  0
LINE
  8
0
 10
66.1873
 20
2447.4
 11
69.0385
 21
2453
  0
LINE
  8
0
 10
69.0385
 20
2453
 11
72.459
 21
2458.27
  0
LINE
  8
0
 10
72.459
 20
2458.27
 11
76.4113
 21
2463.15
  0
LINE
  8
0
 10
76.4113
 20
2463.15
 11
80.8522
 21
2467.59
  0
LINE
  8
0
 10
80.8522
 20
2467.59
 11
85.7329
 21
2471.54
  0
LINE
  8
0
 10
85.7329
 20
2471.54
 11
91
 21
2474.96
  0
LINE
  8
0
 10
91
 20
2474.96
 11
96.5958
 21
2477.81
  0
LINE
  8
0
 10
96.5958
 20
2477.81
 11
102.459
 21
2480.06
  0
LINE
  8
0
 10
102.459
 20
2480.06
 11
108.525
 21
2481.69
  0
LINE
  8
0
 10
108.525
 20
2481.69
 11
114.728
 21
2482.67
  0
LINE
  8
0
 10
114.728
 20
2482.67
 11
121
 21
2483
  0
LINE
  8
0
 10
121
 20
2483
 11
127.272
 21
2482.67
  0
LINE
  8
0
 10
127.272
 20
2482.67
 11
133.475
 21
2481.69
  0
LINE
  8
0
 10
133.475
 20
2481.69
 11
139.541
 21
2480.06
  0
LINE
  8
0
 10
139.541
 20
2480.06
 11
145.404
 21
2477.81
  0
LINE
  8
0
 10
145.404
 20
2477.81
 11
151
 21
2474.96
  0
LINE
  8
0
 10
151
 20
2474.96
 11
156.267
 21
2471.54
  0
LINE
  8
0
 10
156.267
 20
2471.54
 11
161.148
 21
2467.59
  0
LINE
  8
0
 10
161.148
 20
2467.59
 11
165.589
 21
2463.15
  0
LINE
  8
0
 10
165.589
 20
2463.15
 11
169.541
 21
2458.27
  0
LINE
  8
0
 10
169.541
 20
2458.27
 11
172.962
 21
2453
  0
LINE
  8
0
 10
172.962
 20
2453
 11
175.813
 21
2447.4
  0
LINE
  8
0
 10
175.813
 20
2447.4
 11
178.063
 21
2441.54
  0
LINE
  8
0
 10
178.063
 20
2441.54
 11
179.689
 21
2435.47
  0
LINE
  8
0
 10
179.689
 20
2435.47
 11
180.671
 21
2429.27
  0
LINE
  8
0
 10
180.671
 20
2429.27
 11
181
 21
2423
  0
LINE
  8
0
 10
181
 20
2423
 11
180.671
 21
2416.73
  0
LINE
  8
0
 10
180.671
 20
2416.73
 11
179.689
 21
2410.53
  0
LINE
  8
0
 10
179.689
 20
2410.53
 11
178.063
 21
2404.46
  0
LINE
  8
0
 10
178.063
 20
2404.46
 11
175.813
 21
2398.6
  0
LINE
  8
0
 10
175.813
 20
2398.6
 11
172.962
 21
2393
  0
LINE
  8
0
 10
172.962
 20
2393
 11
169.541
 21
2387.73
  0
LINE
  8
0
 10
169.541
 20
2387.73
 11
165.589
 21
2382.85
  0
LINE
  8
0
 10
165.589
 20
2382.85
 11
161.148
 21
2378.41
  0
LINE
  8
0
 10
161.148
 20
2378.41
 11
156.267
 21
2374.46
  0
LINE
  8
0
 10
156.267
 20
2374.46
 11
151
 21
2371.04
  0
LINE
  8
0
 10
151
 20
2371.04
 11
145.404
 21
2368.19
  0
LINE
  8
0
 10
145.404
 20
2368.19
 11
139.541
 21
2365.94
  0
LINE
  8
0
 10
139.541
 20
2365.94
 11
133.475
 21
2364.31
  0
LINE
  8
0
 10
133.475
 20
2364.31
 11
127.272
 21
2363.33
  0
LINE
  8
0
 10
127.272
 20
2363.33
 11
121
 21
2363
  0
LINE
  8
0
 10
121
 20
2363
 11
114.728
 21
2363.33
  0
LINE
  8
0
 10
0
 20
2202
 11
-4
 21
2202
  0
LINE
  8
0
 10
-4
 20
2202
 11
-4
 21
2198
  0
LINE
  8
0
 10
-4
 20
2198
 11
0
 21
2198
  0
LINE
  8
0
 10
0
 20
2198
 11
0
 21
2202
  0
LINE
  8
0
 10
158.4
 20
1204
 11
237.6
 21
1204
  0
LINE
  8
0
 10
237.6
 20
1204
 11
237.6
 21
1200
  0
LINE
  8
0
 10
237.6
 20
1200
 11
316.8
 21
1200
  0
LINE
  8
0
 10
316.8
 20
1200
 11
316.8
 21
1204
  0
LINE
  8
0
 10
316.8
 20
1204
 11
396
 21
1204
  0
LINE
  8
0
 10
396
 20
1204
 11
396
 21
1696
  0
LINE
  8
0
 10
396
 20
1696
 11
316.8
 21
1696
  0
LINE
  8
0
 10
316.8
 20
1696
 11
316.8
 21
1700
  0
LINE
  8
0
 10
316.8
 20
1700
 11
237.6
 21
1700
  0
LINE
  8
0
 10
237.6
 20
1700
 11
237.6
 21
1696
  0
LINE
  8
0
 10
237.6
 20
1696
 11
158.4
 21
1696
  0
LINE
  8
0
 10
158.4
 20
1696
 11
158.4
 21
1700
  0
LINE
  8
0
 10
158.4
 20
1700
 11
79.2
 21
1700
  0
LINE
  8
0
 10
79.2
 20
1700
 11
79.2
 21
1696
  0
LINE
  8
0
 10
79.2
 20
1696
 11
0
 21
1696
  0
LINE
  8
0
 10
0
 20
1696
 11
0
 21
1597.6
  0
LINE
  8
0
 10
0
 20
1597.6
 11
-4
 21
1597.6
  0
LINE
  8
0
 10
-4
 20
1597.6
 11
-4
 21
1499.2
  0
LINE
  8
0
 10
-4
 20
1499.2
 11
0
 21
1499.2
  0
LINE
  8
0
 10
0
 20
1499.2
 11
0
 21
1400.8
  0
LINE
  8
0
 10
0
 20
1400.8
 11
-4
 21
1400.8
  0
LINE
  8
0
 10
-4
 20
1400.8
 11
-4
 21
1302.4
  0
LINE
  8
0
 10
-4
 20
1302.4
 11
0
 21
1302.4
  0
LINE
  8
0
 10
0
 20
1302.4
 11
0
 21
1204
  0
LINE
  8
0
 10
0
 20
1204
 11
79.2
 21
1204
  0
LINE
  8
0
 10
79.2
 20
1204
 11
79.2
 21
1200
  0
LINE
  8
0
 10
79.2
 20
1200
 11
158.4
 21
1200
  0
LINE
  8
0
 10
158.4
 20
1200
 11
158.4
 21
1204
  0
LINE
  8
0
 10
79.2
 20
602
 11
158.4
 21
602
  0
LINE
  8
0
 10
158.4
 20
602
 11
158.4
 21
598
  0
LINE
  8
0
 10
158.4
 20
598
 11
237.6
 21
598
  0
LINE
  8
0
 10
237.6
 20
598
 11
237.6
 21
602
  0
LINE
  8
0
 10
237.6
 20
602
 11
316.8
 21
602
  0
LINE
  8
0
 10
316.8
 20
602
 11
316.8
 21
598
  0
LINE
  8
0
 10
316.8
 20
598
 11
396
 21
598
  0
LINE
  8
0
 10
396
 20
598
 11
396
 21
1198
  0
LINE
  8
0
 10
396
 20
1198
 11
316.8
 21
1198
  0
LINE
  8
0
 10
316.8
 20
1198
 11
316.8
 21
1194
  0
LINE
  8
0
 10
316.8
 20
1194
 11
237.6
 21
1194
  0
LINE
  8
0
 10
237.6
 20
1194
 11
237.6
 21
1198
  0
LINE
  8
0
 10
237.6
 20
1198
 11
158.4
 21
1198
  0
LINE
  8
0
 10
158.4
 20
1198
 11
158.4
 21
1194
  0
LINE
  8
0
 10
158.4
 20
1194
 11
79.2
 21
1194
  0
LINE
  8
0
 10
79.2
 20
1194
 11
79.2
 21
1198
  0
LINE
  8
0
 10
79.2
 20
1198
 11
0
 21
1198
  0
LINE
  8
0
 10
0
 20
1198
 11
0
 21
1075.6
  0
LINE
  8
0
 10
0
 20
1075.6
 11
-4
 21
1075.6
  0
LINE
  8
0
 10
-4
 20
1075.6
 11
-4
 21
957.2
  0
LINE
  8
0
 10
-4
 20
957.2
 11
0
 21
957.2
  0
LINE
  8
0
 10
0
 20
957.2
 11
0
 21
838.8
  0
LINE
  8
0
 10
0
 20
838.8
 11
-4
 21
838.8
  0
LINE
  8
0
 10
-4
 20
838.8
 11
-4
 21
720.4
  0
LINE
  8
0
 10
-4
 20
720.4
 11
0
 21
720.4
  0
LINE
  8
0
 10
0
 20
720.4
 11
0
 21
602
  0
LINE
  8
0
 10
0
 20
602
 11
-4
 21
602
  0
LINE
  8
0
 10
-4
 20
602
 11
-4
 21
598
  0
LINE
  8
0
 10
-4
 20
598
 11
79.2
 21
598
  0
LINE
  8
0
 10
79.2
 20
598
 11
79.2
 21
602
  0
LINE
  8
0
 10
79.2
 20
0
 11
158.4
 21
0
  0
LINE
  8
0
 10
158.4
 20
0
 11
158.4
 21
-4
  0
LINE
  8
0
 10
158.4
 20
-4
 11
237.6
 21
-4
  0
LINE
  8
0
 10
237.6
 20
-4
 11
237.6
 21
0
  0
LINE
  8
0
 10
237.6
 20
0
 11
316.8
 21
0
  0
LINE
  8
0
 10
316.8
 20
0
 11
316.8
 21
-4
  0
LINE
  8
0
 10
316.8
 20
-4
 11
396
 21
-4
  0
LINE
  8
0
 10
396
 20
-4
 11
396
 21
596
  0
LINE
  8
0
 10
396
 20
596
 11
316.8
 21
596
  0
LINE
  8
0
 10
316.8
 20
596
 11
316.8
 21
592
  0
LINE
  8
0
 10
316.8
 20
592
 11
237.6
 21
592
  0
LINE
  8
0
 10
237.6
 20
592
 11
237.6
 21
596
  0
LINE
  8
0
 10
237.6
 20
596
 11
158.4
 21
596
  0
LINE
  8
0
 10
158.4
 20
596
 11
158.4
 21
592
  0
LINE
  8
0
 10
158.4
 20
592
 11
79.2
 21
592
  0
LINE
  8
0
 10
79.2
 20
592
 11
79.2
 21
596
  0
LINE
  8
0
 10
79.2
 20
596
 11
-4
 21
596
  0
LINE
  8
0
 10
-4
 20
596
 11
-4
 21
592
  0
LINE
  8
0
 10
-4
 20
592
 11
0
 21
592
  0
LINE
  8
0
 10
0
 20
592
 11
0
 21
473.6
  0
LINE
  8
0
 10
0
 20
473.6
 11
-4
 21
473.6
  0
LINE
  8
0
 10
-4
 20
473.6
 11
-4
 21
355.2
  0
LINE
  8
0
 10
-4
 20
355.2
 11
0
 21
355.2
  0
LINE
  8
0
 10
0
 20
355.2
 11
0
 21
236.8
  0
LINE
  8
0
 10
0
 20
236.8
 11
-4
 21
236.8
  0
LINE
  8
0
 10
-4
 20
236.8
 11
-4
 21
118.4
  0
LINE
  8
0
 10
-4
 20
118.4
 11
0
 21
118.4
  0
LINE
  8
0
 10
0
 20
118.4
 11
0
 21
0
  0
LINE
  8
0
 10
0
 20
0
 11
-4
 21
0
  0
LINE
  8
0
 10
-4
 20
0
 11
-4
 21
-4
  0
LINE
  8
0
 10
-4
 20
-4
 11
79.2
 21
-4
  0
LINE
  8
0
 10
79.2
 20
-4
 11
79.2
 21
0
  0
LINE
  8
0
 10
0
 20
3982
 11
-4
 21
3982
  0
LINE
  8
0
 10
-4
 20
3982
 11
-4
 21
3944
  0
LINE
  8
0
 10
-4
 20
3944
 11
0
 21
3944
  0
LINE
  8
0
 10
0
 20
3944
 11
0
 21
3906
  0
LINE
  8
0
 10
0
 20
3906
 11
-4
 21
3906
  0
LINE
  8
0
 10
-4
 20
3906
 11
-4
 21
3868
  0
LINE
  8
0
 10
-4
 20
3868
 11
0
 21
3868
  0
LINE
  8
0
 10
0
 20
3868
 11
0
 21
3830
  0
LINE
  8
0
 10
0
 20
3830
 11
9.2
 21
3830
  0
LINE
  8
0
 10
9.2
 20
3830
 11
9.2
 21
3826
  0
LINE
  8
0
 10
9.2
 20
3826
 11
18.4
 21
3826
  0
LINE
  8
0
 10
18.4
 20
3826
 11
18.4
 21
3830
  0
LINE
  8
0
 10
18.4
 20
3830
 11
27.6
 21
3830
  0
LINE
  8
0
 10
27.6
 20
3830
 11
27.6
 21
3826
  0
LINE
  8
0
 10
27.6
 20
3826
 11
36.8
 21
3826
  0
LINE
  8
0
 10
36.8
 20
3826
 11
36.8
 21
3830
  0
LINE
  8
0
 10
36.8
 20
3830
 11
46
 21
3830
  0
LINE
  8
0
 10
46
 20
3830
 11
46
 21
4020
  0
LINE
  8
0
 10
46
 20
4020
 11
36.8
 21
4020
  0
LINE
  8
0
 10
36.8
 20
4020
 11
36.8
 21
4024
  0
LINE
  8
0
 10
36.8
 20
4024
 11
27.6
 21
4024
  0
LINE
  8
0
 10
27.6
 20
4024
 11
27.6
 21
4020
  0
LINE
  8
0
 10
27.6
 20
4020
 11
18.4
 21
4020
  0
LINE
  8
0
 10
18.4
 20
4020
 11
18.4
 21
4024
  0
LINE
  8
0
 10
18.4
 20
4024
 11
9.2
 21
4024
  0
LINE
  8
0
 10
9.2
 20
4024
 11
9.2
 21
4020
  0
LINE
  8
0
 10
9.2
 20
4020
 11
0
 21
4020
  0
LINE
  8
0
 10
0
 20
4020
 11
0
 21
3982
  0
LINE
  8
0
 10
0
 20
2099.6
 11
-4
 21
2099.6
  0
LINE
  8
0
 10
-4
 20
2099.6
 11
-4
 21
2001.2
  0
LINE
  8
0
 10
-4
 20
2001.2
 11
0
 21
2001.2
  0
LINE
  8
0
 10
0
 20
2001.2
 11
0
 21
1902.8
  0
LINE
  8
0
 10
0
 20
1902.8
 11
-4
 21
1902.8
  0
LINE
  8
0
 10
-4
 20
1902.8
 11
-4
 21
1804.4
  0
LINE
  8
0
 10
-4
 20
1804.4
 11
0
 21
1804.4
  0
LINE
  8
0
 10
0
 20
1804.4
 11
0
 21
1706
  0
LINE
  8
0
 10
0
 20
1706
 11
79.2
 21
1706
  0
LINE
  8
0
 10
79.2
 20
1706
 11
79.2
 21
1702
  0
LINE
  8
0
 10
79.2
 20
1702
 11
158.4
 21
1702
  0
LINE
  8
0
 10
158.4
 20
1702
 11
158.4
 21
1706
  0
LINE
  8
0
 10
158.4
 20
1706
 11
237.6
 21
1706
  0
LINE
  8
0
 10
237.6
 20
1706
 11
237.6
 21
1702
  0
LINE
  8
0
 10
237.6
 20
1702
 11
316.8
 21
1702
  0
LINE
  8
0
 10
316.8
 20
1702
 11
316.8
 21
1706
  0
LINE
  8
0
 10
316.8
 20
1706
 11
396
 21
1706
  0
LINE
  8
0
 10
396
 20
1706
 11
396
 21
2198
  0
LINE
  8
0
 10
396
 20
2198
 11
316.8
 21
2198
  0
LINE
  8
0
 10
316.8
 20
2198
 11
316.8
 21
2202
  0
LINE
  8
0
 10
316.8
 20
2202
 11
237.6
 21
2202
  0
LINE
  8
0
 10
237.6
 20
2202
 11
237.6
 21
2198
  0
LINE
  8
0
 10
237.6
 20
2198
 11
158.4
 21
2198
  0
LINE
  8
0
 10
158.4
 20
2198
 11
158.4
 21
2202
  0
LINE
  8
0
 10
158.4
 20
2202
 11
79.2
 21
2202
  0
LINE
  8
0
 10
79.2
 20
2202
 11
79.2
 21
2198
  0
LINE
  8
0
 10
79.2
 20
2198
 11
0
 21
2198
  0
LINE
  8
0
 10
0
 20
2198
 11
0
 21
2099.6
  0
ENDSEC
  0
SECTION
  2
OBJECTS
  0
DICTIONARY
  0
ENDSEC
  0
EOF
